<svg width="390" height="200" preserveAspectRatio="none" version="1.1" viewBox="0 0 390 200" xmlns="http://www.w3.org/2000/svg" xmlns:xlink="http://www.w3.org/1999/xlink">
 <defs>
  <linearGradient id="linearGradient836" x1="388.61" x2=".53454" y1="192.23" y2="192.23" gradientUnits="userSpaceOnUse">
   <stop stop-color="#71e0d2" offset="0"/>
   <stop stop-color="#aedcca" offset="1"/>
  </linearGradient>
 </defs>
 <g transform="translate(0,-97)">
  <g stroke-width=".26458">
   <rect x=".43397" y="96.08" width="390.74" height="201.04" fill="url(#linearGradient836)" fill-rule="evenodd"/>
   <path d="m78.954 168.97c-2.2178-2e-3 -4.5237 0.12395-5.5054 0.3503-4.5492 1.049-7.0931 3.5651-8.1733 8.0834-0.31643 1.3234-0.3959 2.3567-0.47383 6.1827l-0.09296 4.5932h-6.9485v8.902h6.9922v27.087h10.399v-27.087h7.6691l0.10609-0.80465c0.0587-0.44277 0.22796-2.1264 0.37644-3.7412 0.14844-1.6148 0.31264-3.2557 0.36439-3.6464l0.094-0.70982h-8.6097v-3.5158c0-4.0178 0.16094-4.9759 0.98048-5.8418 0.83985-0.88731 1.6406-1.0602 4.9111-1.0602h2.8933v-8.4918l-1.3898-0.14788c-0.96284-0.10202-2.2618-0.15079-3.5925-0.15258zm118.83 0.0785-0.40267 5e-3c-0.27988 2e-3 -8.9616 0.82149-9.9516 0.93874-0.0245 2e-3 -0.0438 12.194-0.0438 27.091v27.087h9.8608v-5.0141l0.60404 0.94455c1.392 2.1756 3.5066 3.7237 6.0964 4.4637 1.0632 0.30381 1.7292 0.35437 3.9668 0.29713 2.2986-0.0589 2.8984-0.14117 4.1244-0.56302 3.4773-1.1964 5.8549-3.4758 7.5441-7.2316 1.3587-3.0206 1.868-5.9892 1.868-10.89 0-4.9014-0.50924-7.8709-1.868-10.892-1.6867-3.7497-4.0456-6.014-7.5441-7.2405-1.3042-0.45722-1.6956-0.50416-4.3038-0.51448-2.4814-9e-3 -3.0389 0.0452-4.1309 0.40812-2.1382 0.71074-4.1838 2.3277-5.3029 4.192l-0.51651 0.86133v-11.971zm112.41 0c-0.4726 0-8.0926 0.72381-9.0916 0.86363l-0.76165 0.10629v54.151h10.215l0.094-17.522 10.547 17.522h11.047l-1.5867-2.6047c-0.87263-1.4325-3.3678-5.5323-5.5448-9.1104l-3.958-6.5041 0.47055-0.78843c0.25857-0.43313 2.6352-4.3941 5.281-8.8026 2.6458-4.4085 4.8105-8.0544 4.8105-8.1012 0-0.0467-2.4738-0.0622-5.4977-0.0347l-5.4988 0.0508-4.9451 8.3728c-2.7201 4.6049-5.0068 8.3764-5.0808 8.3817-0.074 5e-3 -0.13344-8.0887-0.13344-17.986 0-17.987-1e-3 -17.995-0.3666-17.995zm-211.8 18.387c-1.1933-3.4e-4 -2.4206 0.0915-3.3025 0.27632-1.9224 0.40263-4.411 1.7217-5.7877 3.0683-2.4594 2.4056-4.047 5.9542-4.642 10.375-0.23067 1.7141-0.23067 8.3243 0 10.039 0.60012 4.4593 2.2124 8.0366 4.6912 10.409 1.3628 1.3042 3.8338 2.6344 5.6117 3.0209 3.0467 0.66249 6.9799 0.24379 9.1034-0.96998 1.2887-0.73668 2.9363-2.4034 3.6013-3.6429l0.56245-1.0497 0.0504 2.6047 0.0493 2.6047h9.8508v-35.99h-9.8609l-1e-3 2.6995-2e-3 2.6984-0.56464-1.0417c-1.2059-2.2259-3.7735-4.2032-6.2639-4.8233-0.74354-0.18524-1.9025-0.27715-3.0958-0.27746zm40.957 0.0179c-1.305-0.0115-2.5145 0.0336-3.2872 0.14229-5.7613 0.81001-9.844 3.51-12.023 7.9508-1.4219 2.8979-1.9139 5.632-1.9139 10.629 0 3.7688 0.24426 5.9211 0.92355 8.145 1.7607 5.7639 6.0969 9.3412 12.613 10.406 1.7116 0.2797 7.8343 0.10294 9.412-0.27168 1.648-0.3912 4.0117-1.3341 4.317-1.7226 0.18508-0.23574 0.0383-0.92417-0.8218-3.8695-0.57553-1.9707-1.099-3.673-1.1632-3.7828-0.0768-0.13155-0.51391-0.0422-1.2803 0.26242-1.7491 0.69554-3.7044 1.0614-5.661 1.059-2.7644-5e-3 -4.3908-0.59502-5.8459-2.1261-1.444-1.5197-2.0372-3.3642-2.2083-6.8688-0.29992-6.1442 1.2265-9.7449 4.6606-10.993 2.1753-0.79088 6.237-0.52635 9.0434 0.58962 0.77335 0.30753 1.2144 0.39963 1.2913 0.26822 0.0642-0.10986 0.58766-1.8121 1.1632-3.7828 0.8602-2.9453 1.007-3.6349 0.82181-3.8707-0.30657-0.39026-2.6751-1.334-4.317-1.7203-1.1115-0.26151-3.5492-0.42708-5.7243-0.44393zm28.574 0.0417c-2.0291-0.0179-4.0843 0.10271-5.1891 0.37342-4.6696 1.1438-7.971 3.6545-9.8334 7.4778-1.4507 2.9786-1.9078 5.5291-1.9095 10.644-2e-3 7.3251 1.048 10.953 4.1167 14.22 2.6517 2.8234 5.6734 4.1663 10.619 4.717 2.0015 0.22283 6.5188 0.0744 8.8865-0.29135 3.3763-0.52177 7.3032-1.7035 7.5049-2.2578 0.0665-0.18323-1.0304-4.9294-1.6513-7.1434-0.0796-0.2842-0.24948-0.25957-1.6502 0.24163-4.7612 1.7036-10.725 2.0935-13.793 0.90174-2.0229-0.78556-3.2666-2.6656-3.5706-5.399l-0.11259-1.0162h21.743l-1e-3 -3.9297c-5.7e-4 -2.5106-0.0966-4.6065-0.26701-5.8014-0.91874-6.4396-4.3105-10.659-9.862-12.27-0.99807-0.2897-3.0002-0.44867-5.0294-0.46707zm74.057 0.0358c-4.479-0.0115-5.8773 0.27047-8.7851 1.7793-2.9916 1.5523-5.024 3.6763-6.4387 6.7308-1.4388 3.1064-1.8067 5.1739-1.8067 10.134 0 4.9605 0.36787 7.0268 1.8067 10.133 2.0512 4.4285 5.8465 7.3115 10.963 8.3296 0.99952 0.19889 2.3247 0.25922 4.7076 0.21276 2.8527-0.0557 3.5594-0.132 5.0447-0.54568 5.6386-1.5705 9.3163-5.4983 10.861-11.596 0.45827-1.8095 0.48038-2.1012 0.48038-6.5343 0-4.4332-0.0221-4.726-0.48038-6.5355-1.5431-6.0928-5.1876-9.9876-10.861-11.606-1.5943-0.45485-2.0164-0.49349-5.4922-0.5029zm37.471 0c-3.3361-9e-3 -3.9464 0.0378-5.3566 0.41619-2.0542 0.55107-4.3473 1.6936-5.9003 2.9388-4.5111 3.6172-6.5138 10.272-5.6784 18.872 0.78238 8.0544 5.3566 13.424 12.676 14.881 0.99961 0.19887 2.3247 0.25924 4.7077 0.21274 2.8601-0.0557 3.5563-0.13221 5.0578-0.5503 4.3259-1.2045 7.5435-3.826 9.4446-7.6939 1.4615-2.9737 1.9916-5.7494 1.9916-10.432 0-4.6777-0.53137-7.4654-1.9862-10.419-1.9322-3.9228-5.0408-6.4621-9.4501-7.7194-1.61-0.45912-2.0237-0.49692-5.5064-0.50638zm-111.7 7.4127c1.2424-5e-3 1.8462 0.0908 2.6252 0.41044 2.1064 0.86444 3.3814 3.1659 3.3814 6.1052v1.3064h-12.371v-0.7318c0-2.0971 0.96601-4.7049 2.1142-5.7054 1.0927-0.95218 2.4003-1.3788 4.2502-1.385zm111.85 1.0127c1.655 0.0483 3.2879 0.67658 4.3826 1.8682 1.5894 1.7303 2.008 3.4704 2.008 8.3503 0 3.9064-0.1491 5.0008-0.91156 6.7149-0.52954 1.1901-1.6309 2.3272-2.8047 2.8949-0.75206 0.36374-1.3666 0.49639-2.5377 0.55031-2.047 0.0942-3.3964-0.35483-4.6562-1.5515-1.7753-1.6864-2.3516-3.7969-2.3516-8.6084 0-4.8133 0.57619-6.922 2.3538-8.6108 1.1844-1.1251 2.8622-1.6566 4.5172-1.6082zm-178.23 0.0179c0.19417 2e-3 0.39291 0.0115 0.59417 0.0267 2.9376 0.23471 4.8114 2.0248 5.5404 5.2916 0.18698 0.8376 0.2659 2.2832 0.2659 4.8834 0 3.9134-0.19163 5.3692-0.8984 6.8326-0.56364 1.1672-1.5391 2.1968-2.6055 2.7481-0.74392 0.38453-1.3104 0.51679-2.4501 0.57344-3.2682 0.16242-5.4172-1.2876-6.3995-4.3158-0.88697-2.7348-0.88697-8.9429 0-11.678 0.92539-2.8534 3.0387-4.3927 5.9529-4.362zm140.37 2e-3c0.22912-2e-3 0.46226 5e-3 0.69922 0.0202 3.0834 0.22327 5.0545 2.0836 5.814 5.4869 0.36631 1.6415 0.36631 7.7413 0 9.3833-0.53482 2.3965-1.7078 4.0598-3.4732 4.925-0.72956 0.35754-1.3415 0.48957-2.5103 0.54337-1.9821 0.0913-3.3767-0.35513-4.5686-1.4637-1.8753-1.744-2.4446-3.7699-2.4446-8.696 0-4.9282 0.56914-6.9522 2.4468-8.6984 1.0335-0.96113 2.4329-1.4784 4.0368-1.5007zm-37.501 0.0682c2.0871-5e-3 3.2261 0.37177 4.3815 1.4463 1.8611 1.7308 2.4315 3.7692 2.4315 8.6848 0 4.912-0.57065 6.9534-2.4271 8.6801-0.45077 0.41921-1.1982 0.90301-1.6611 1.0752-1.0078 0.37495-3.445 0.52964-4.3859 0.27862-2.3288-0.62127-3.8773-2.4503-4.5227-5.3424-0.36633-1.6415-0.36633-7.7412 0-9.3833 0.54585-2.446 1.6807-4.0583 3.4798-4.9436 0.85514-0.42075 1.2497-0.49302 2.704-0.49597z"/>
  </g>
 </g>
</svg>
