<svg width="390" height="200" version="1.1" viewBox="0 0 1200 800" preserveAspectRatio="none"  xmlns="http://www.w3.org/2000/svg">
 <path d="m0 400v-400h1200v800h-1200z" fill="#fcf9f8"/>
 <path d="m0 400v-400h1200v800h-1200zm305.81 181.41c4.4768-0.96196 7.538-2.1579 7.8933-3.0837 0.55066-1.435-0.45912-9.0653-2.8309-21.392l-1.0715-5.5684-7.6519-1.3038c-10.256-1.7476-15.315-4.3883-21.776-11.367-4.8514-5.24-9.3756-12.208-9.3756-14.44 0-0.45521 2.5875-2.5684 5.75-4.6959 15.251-10.26 34.578-30.811 43.314-46.056 11.819-20.626 17.32-35.782 21.597-59.5 2.0515-11.377 2.3406-45.248 0.48649-57-6.1063-38.704-18.234-65.112-39.632-86.3-3.7688-3.7319-8.689-8.039-10.934-9.5713-2.2448-1.5323-5.8815-4.0318-8.0815-5.5544-6.6391-4.5948-22.426-12.147-32.316-15.46-19.607-6.5672-33.187-8.5698-58.184-8.5802-17.746-7e-3 -21.886 0.30019-30.816 2.2891-19.793 4.4084-38.703 12.141-53.358 21.82-4.0296 2.6613-8.0015 5.1344-8.8265 5.4957-2.7961 1.2245-21.016 19.038-26.818 26.22-18.588 23.009-29.709 49.781-33.289 80.142-1.9235 16.313-0.60364 49.19 2.5656 63.907 5.071 23.548 12.906 42.496 24.023 58.093 18.497 25.952 47.126 44.583 80.019 52.073 24.128 5.494 59.003 6.07 77.341 1.2775 0.74933-0.19583 4.7584 4.062 9.0857 9.6495 12.504 16.146 24.445 24.86 39.573 28.88 10.448 2.7762 20.48 2.7843 33.313 0.0268zm-127.31-74.847c-4.95-0.7035-11.025-1.834-13.5-2.5123-15.221-4.1713-32.11-18.661-39.685-34.048-9.908-20.125-14.085-42.463-14.12-75.5-0.0549-53.231 12.639-89.406 38.823-110.63 17.763-14.401 45.63-18.439 67.887-9.8363 27.51 10.632 43.733 36.295 50.239 79.47 1.8423 12.227 1.8455 60.741 5e-3 73-2.963 19.733-8.16 35.051-16.539 48.746l-2.9036 4.7458-6.6032-6.8663c-14.254-14.822-30.461-22.015-49.772-22.09-8.2738-0.0321-20.715 2.0749-22.504 3.8113-0.37011 0.35921-0.30375 2.9031 0.14745 5.6531 3.5922 21.893 2.9399 20.5 9.5965 20.5 4.2944 0 12.501 3.0852 17.593 6.6137 4.6695 3.236 13.048 14.048 12.618 16.282-0.55792 2.8971-18.745 4.4462-31.282 2.6645zm542.61 32.86c16.091-3.0523 30.665-9.2448 41.826-17.772 30.109-23.002 46.115-57.092 46.152-98.291 0.01411-15.693-0.90882-23.576-4.257-36.358-9.4741-36.169-35.48-62.186-70.826-70.856-13.366-3.2786-36.965-4.3088-48.201-2.1042-26.084 5.118-42.56 13.682-58.875 30.603-21.427 22.224-33.003 52.553-32.893 86.179 0.0468 14.27 2.8952 31.848 6.9157 42.678 1.2251 3.3 2.4928 6.9 2.8171 8 0.32429 1.1 1.9324 4.475 3.5735 7.5 12.058 22.225 31.439 38.888 54.162 46.566 15.883 5.3666 42.544 7.0906 59.605 3.8542zm-27.605-32.819c-8.5504-2.7042-15.308-8.3097-20.875-17.315-8.3695-13.54-13.624-39.019-13.626-66.077-2e-3 -23.264 3.0649-40.906 9.5116-54.709 4.4689-9.5682 9.2882-14.824 16.94-18.477 5.6622-2.7023 7.3358-3.0235 15.755-3.0235 7.9093 0 10.222 0.38704 14.423 2.4136 9.2442 4.4596 18.254 16.192 22.736 29.607 7.8364 23.455 8.6606 67.603 1.7731 94.979-2.3835 9.4739-8.7692 20.829-14.358 25.532-8.5701 7.2112-22.314 10.221-32.28 7.0694zm345 31.239c13.715-2.818 25.548-8.894 36.61-18.798 3.8495-3.4466 7.2443-6.0213 7.5439-5.7216 0.2997 0.29964 0.6127 5.1876 0.6956 10.862l0.1507 10.317h78l0.564-22.342-5.782-1.189c-13.183-2.7109-16.187-3.8848-17.769-6.9432-1.2973-2.5087-1.5132-10.793-1.5132-58.055 0-60.609-0.5442-69.418-5.2122-84.362-7.9434-25.43-24.968-39.336-55.288-45.158-17.131-3.2898-55.467-0.97899-76 4.581-2.2 0.59573-5.5817 1.4861-7.5148 1.9785-4.6526 1.1853-12.986 4.9006-12.982 5.7878 2e-3 0.38677 0.63763 4.5282 1.413 9.2032s2.1778 13.45 3.1163 19.5 2.128 11.527 2.6431 12.17c0.69726 0.87108 2.3349 0.55175 6.4077-1.2494 7.6692-3.3917 21.489-7.8228 30.814-9.8803 5.7889-1.2772 10.995-1.6424 19.5-1.3678 10.125 0.32685 12.367 0.72896 17.603 3.1575 12.866 5.9677 17.457 14.217 17.485 31.42l0.015 9.25h-8.6823c-8.5979 0-20.29 1.0727-33.818 3.1026-26.678 4.0031-48.127 13.852-62.125 28.525-18.157 19.032-22.732 51.555-10.798 76.759 5.3251 11.247 18.65 22.226 32.924 27.128 9.1976 3.1584 29.899 3.8117 42 1.3254zm-8-50.775c-10.723-2.6106-16.867-10.647-16.867-22.065 0-7.5197 1.6085-11.249 6.8289-15.833 8.5868-7.5393 26.396-12.115 47.288-12.149l11.25-0.01843v11.322c0 15.512-2.7865 23.213-10.989 30.369-8.2033 7.1566-26.101 11.152-37.511 8.3742zm-562.07 49.815c4.4375-1.166 12.118-4.0212 17.068-6.3449 8.567-4.0217 22.818-13.757 26.905-18.38 1.0477-1.1851 2.2714-2.1548 2.7192-2.1548s0.94058 5.5125 1.095 12.25l0.28078 12.25h83l0.28613-10.354c0.17363-6.2828-0.13257-10.859-0.77874-11.637-0.58568-0.7057-5.2796-2.042-10.431-2.9695-10.507-1.8918-12.448-3.2654-14.422-10.207-0.87526-3.0774-1.173-27.499-1.1385-93.385 0.0257-49.07-0.0799-89.302-0.23469-89.405-0.29447-0.19553-10.709 0.60783-31.781 2.4515-17.581 1.5382-32.894 2.7858-44.176 3.5992-5.322 0.38371-10.169 1.0021-10.771 1.3742-0.66296 0.40973-1.1849 5.0666-1.3236 11.809-0.22102 10.747-0.1494 11.168 2.0681 12.178 1.2634 0.57521 3.9634 1.0747 6 1.11 10.262 0.17794 19.203 3.9175 19.203 8.0318 0 0.9823 0.45 2.0641 1 2.404 0.64547 0.39892 1 18.661 1 51.51 0 53.221-0.21483 56.318-4.538 65.429-2.9806 6.2811-9.2387 12.349-16.281 15.785-6.2434 3.0464-7.3687 3.2604-17.181 3.2674-9.2629 7e-3 -11.162-0.303-16.12-2.627-10.646-4.9901-17.144-13.102-20.347-25.399-1.3081-5.0223-1.5329-16.383-1.5329-77.475 0-45.333-0.3588-71.949-0.97827-72.568-0.6098-0.6098-4.2822-0.68505-9.75-0.1998-4.8244 0.42816-13.947 1.214-20.272 1.7463-21.959 1.848-43.443 3.7697-51.689 4.6233l-5.1888 0.53714-0.31121 11.024c-0.19859 7.0348 0.0789 11.347 0.76681 11.915 0.59291 0.49021 3.9679 1.3304 7.5 1.8671 12.533 1.9044 13.768 2.295 16.599 5.2482l2.8231 2.9455 0.54189 63.686c0.5967 70.127 0.5176 69.195 7.026 82.831 7.7735 16.286 21.142 27.063 40.932 32.998 10.59 3.1758 30.816 3.2885 42.432 0.23645zm460.35-13.544 0.28194-11.164-2.7819-0.57c-1.5301-0.31351-8.8569-1.2769-16.282-2.1409s-14.329-1.8149-15.342-2.1131c-1.0132-0.29822-2.6908-2.4112-3.728-4.6956-1.7534-3.8617-1.8874-7.187-1.9078-47.356-0.0163-31.992 0.29652-43.929 1.2054-46 2.5308-5.7677 7.6897-12.963 12.895-17.986 7.5617-7.2964 9.5898-8.7415 18.502-13.183 14.539-7.2454 33.01-12.128 45.88-12.128h4.7736l-0.59861-5.75c-0.32923-3.1625-1.5558-12.05-2.7256-19.75-1.1699-7.7-2.4255-16.23-2.7903-18.956-0.75923-5.673-1.803-6.2755-11.163-6.4437-21.882-0.39333-48.266 13.467-63.504 33.361-3.1755 4.146-6.1613 7.5381-6.6351 7.5381s-0.86138-1.6013-0.86138-3.5584c0-1.9571-0.44855-6.7946-0.99679-10.75-0.54823-3.9554-1.5154-11.017-2.1492-15.692s-1.4564-8.8486-1.828-9.2748c-0.37155-0.42612-6.2669-0.29953-13.101 0.28131-6.8339 0.58084-15.125 1.2697-18.425 1.5307-7.9212 0.62666-25.171 2.1786-39.78 3.5788l-11.78 1.1291 0.2798 12.091 0.27979 12.091 3.5 0.71607c1.925 0.39385 7.7712 1.301 12.991 2.0158 7.8255 1.0716 10.02 1.7715 12.5 3.9876l3.0085 2.6878 0.26914 72.483 0.26913 72.483-2.4899 2.9591c-2.3356 2.7758-3.4056 3.1018-17.269 5.262-8.1286 1.2666-15.342 2.7349-16.029 3.2628-1.3341 1.0245-1.8477 19.784-0.5764 21.055 0.37048 0.37048 31.083 0.55798 68.25 0.41666l67.576-0.25693z" fill="#a62100"/>
</svg>
