<svg width="750" height="400" preserveAspectRatio="none" version="1.1" viewBox="0 0 225 225" xmlns="http://www.w3.org/2000/svg">
 <g transform="translate(.0033382 -.0234)">
  <path d="m0 112.5v-112.5h225v225h-225z" fill="#fdfdfd"/>
  <path d="m0 112.5v-112.5h225v225h-225zm182.07 67.554c12.255-3.8142 22.509-13.594 26.628-25.399 1.6067-4.6046 1.799-9.1106 1.799-42.156 0-33.307-0.1831-37.525-1.8343-42.262-3.9413-11.306-14.731-21.634-26.351-25.223-6.2483-1.9299-9.1894-2.0156-69.21-2.0156-67.831 0-69.506 0.11686-78.672 5.4873-5.3074 3.1097-11.658 9.5148-14.873 15.002-5.2568 8.97-5.7049 13.302-5.3551 51.763 0.30729 33.788 0.41317 35.476 2.5561 40.748 4.4648 10.984 14.578 20.448 25.578 23.935 5.8359 1.8497 9.5297 1.956 69.823 2.0092 60.349 0.0533 63.986-0.0451 69.913-1.8896zm-96.407-39.721c-0.36667-0.36666-0.66667-12.981-0.66667-28.031 0-24.915 0.15336-27.424 1.7132-28.022 2.4273-0.93143 56.787 27.022 56.787 29.201 0 1.1092-8.2929 5.5704-27 14.525-25.98 12.436-29.37 13.791-30.833 12.327z" fill="#fe869b"/>
  <path d="m0 112.5v-112.5h225v83.378c0 70.097-0.22216 83.562-1.3947 84.535-0.76711 0.63664-1.7796 1.0327-2.25 0.88021-1.2896-0.41814-4.8955 2.4623-5.6662 4.5261-0.46572 1.2472-1.2861 1.6263-2.6099 1.2062-1.171-0.37167-2.255-0.046-2.7549 0.82767-0.45332 0.79225-2.5117 2.4314-4.5742 3.6426-2.0625 1.2112-3.75 2.5426-3.75 2.9587s-1.4625 1.1963-3.25 1.7338-3.1264 1.536-2.9752 2.219c0.15112 0.68295-0.14645 0.9814-0.66129 0.66321-0.51483-0.31818-2.1727 0.73172-3.6842 2.3331s-3.2811 2.7071-3.9326 2.4571c-0.65146-0.24999-2.6269 0.89292-4.3899 2.5398-1.763 1.6469-3.2958 2.9764-3.4061 2.9546-0.8926-0.17661-5.7007 2.6613-5.7007 3.3648 0 0.49418-0.45 0.62039-1 0.28047s-1-0.2261-1 0.25292c0 0.47903-1.4142 1.9166-3.1427 3.1945-1.7285 1.278-2.7762 1.7001-2.3281 0.93806s-0.13436-0.55389-1.2942 0.46249c-1.2727 1.1153-2.6295 1.5348-3.4219 1.058-0.8806-0.52977-0.81902-0.16949 0.18699 1.094 0.87422 1.098 0.97852 1.5706 0.25 1.1329-0.70244-0.42201-1.25-0.26122-1.25 0.36706 0 0.61492-0.38986 0.87709-0.86635 0.5826-0.4765-0.29449-1.6616 0.34334-2.6336 1.4174s-2.1264 1.7309-2.5652 1.4597c-0.43887-0.27123-1.3912 0.35389-2.1164 1.3892s-1.6607 1.9355-2.079 2.0006c-1.1787 0.18332-6.1528 3.4838-6.9741 4.6274-0.47499 0.66145-0.74053 0.66962-0.75122 0.0231-9e-3 -0.55-1.0808 0.2375-2.3817 1.75l-2.3651 2.75h-138.27zm182.07 67.554c12.255-3.8142 22.509-13.594 26.628-25.399 1.6067-4.6046 1.799-9.1106 1.799-42.156 0-33.307-0.1831-37.525-1.8343-42.262-3.9413-11.306-14.731-21.634-26.351-25.223-6.2483-1.9299-9.1894-2.0156-69.21-2.0156-67.831 0-69.506 0.11686-78.672 5.4873-5.3074 3.1097-11.658 9.5148-14.873 15.002-5.2568 8.97-5.7049 13.302-5.3551 51.763 0.30729 33.788 0.41317 35.476 2.5561 40.748 4.4648 10.984 14.578 20.448 25.578 23.935 5.8359 1.8497 9.5297 1.956 69.823 2.0092 60.349 0.0533 63.986-0.0451 69.913-1.8896zm-96.407-39.721c-0.36667-0.36666-0.66667-12.981-0.66667-28.031 0-24.915 0.15336-27.424 1.7132-28.022 2.4273-0.93143 56.787 27.022 56.787 29.201 0 1.1092-8.2929 5.5704-27 14.525-25.98 12.436-29.37 13.791-30.833 12.327z" fill="#fe728b"/>
  <path d="m0 112.52v-112.52h225.03l-0.0444 60.5c-0.0365 49.771-0.28121 60.5-1.3796 60.5-0.73437 0-2.4606 0.88526-3.8362 1.9672-1.3755 1.082-2.8579 1.6445-3.2942 1.25-0.43628-0.39449-0.5017 0.0936-0.14536 1.0847 0.3593 0.99934 0.23834 1.5488-0.27158 1.2337-0.50569-0.31254-1.2021-0.11091-1.5476 0.44806s-1.2439 1.0163-1.9965 1.0163c-1.115 0-1.4336-4.9537-1.7207-26.75-0.32724-24.848-0.51004-27.141-2.5703-32.25-4.4889-11.131-14.601-20.492-25.908-23.984-6.2483-1.9299-9.1894-2.0156-69.21-2.0156-67.831 0-69.506 0.11686-78.672 5.4873-5.3074 3.1097-11.658 9.5148-14.873 15.002-5.2568 8.97-5.7049 13.302-5.3551 51.763 0.30729 33.788 0.41317 35.476 2.5561 40.748 4.5349 11.157 14.629 20.495 25.925 23.984 6.2079 1.9174 9.5511 2.0268 68.67 2.2454 34.18 0.12643 52.132 0.36004 39.895 0.51913-13.681 0.17786-22.25 0.66703-22.25 1.2701 0 0.53948-0.85186 0.98087-1.893 0.98087-1.0412 0-2.163 0.70352-2.4929 1.5634s-0.98495 1.3254-1.4555 1.0346-1.7459 0.30059-2.8339 1.3143c-1.0881 1.0137-2.9628 2.1555-4.166 2.5374-1.2032 0.38188-1.9296 1.1119-1.6141 1.6223 0.31544 0.5104-0.35302 0.928-1.4855 0.928s-2.059 0.43844-2.059 0.97432-1.4625 1.7122-3.25 2.6142-4.4509 2.7626-5.9187 4.1349-3.1553 2.1944-3.75 1.8268c-0.59469-0.36754-1.0813-0.27456-1.0813 0.20662s-1.9125 1.9451-4.25 3.2532c-5.0455 2.8235-6.901 4.5056-5.9829 5.4238 0.36955 0.36954-0.01098 0.40985-0.84562 0.0896-0.88959-0.34137-2.4888 0.45158-3.8649 1.9163-1.291 1.3743-2.732 2.261-3.202 1.9704-0.47005-0.29054-0.85464-0.10415-0.85464 0.41416 0 0.90347-3.6902 2.5087-5.25 2.2838-0.4125-0.0595-0.75 0.59341-0.75 1.4509s-0.36803 1.3316-0.81784 1.0536-1.4332 0.3483-2.1853 1.3918c-1.2945 1.796-3.1709 1.9011-35.182 1.9698l-33.815 0.07261zm194 62.099c0-0.20765 0.7875-0.99515 1.75-1.75 1.5861-1.2439 1.6214-1.2085 0.37756 0.37756-1.3064 1.6658-2.1276 2.1955-2.1276 1.3724zm16.079-26.206c0.048-1.165 0.28494-1.4019 0.60416-0.60417 0.28887 0.72187 0.25335 1.5844-0.0789 1.9167-0.3323 0.33229-0.56864-0.25834-0.52522-1.3125zm-124.41-8.0833c-0.36667-0.36666-0.66667-12.981-0.66667-28.031 0-24.915 0.15336-27.424 1.7132-28.022 2.4273-0.93143 56.787 27.022 56.787 29.201 0 1.1092-8.2929 5.5704-27 14.525-25.98 12.436-29.37 13.791-30.833 12.327z" fill="#fe617d"/>
  <path d="m0 112.5v-112.5h225v39c0 37.101-0.0933 39.093-1.9167 40.917-1.0542 1.0542-2.1792 1.6542-2.5 1.3333-0.32083-0.32083-0.58333-0.11813-0.58333 0.45045 0 0.86986-7.1828 6.2996-8.3335 6.2996-0.20702 0-0.63111-3.0381-0.94241-6.7512-1.4451-17.237-12.482-31.314-28.409-36.233-6.2483-1.9299-9.1894-2.0156-69.21-2.0156-67.831 0-69.506 0.11686-78.672 5.4873-5.3074 3.1097-11.658 9.5148-14.873 15.002-5.2568 8.97-5.7049 13.302-5.3551 51.763 0.30729 33.788 0.41317 35.476 2.5561 40.748 4.5349 11.157 14.629 20.495 25.925 23.984 6.2061 1.9168 9.569 2.0274 68.67 2.2567l62.145 0.24113-53.804 0.26758c-40.537 0.20161-53.627 0.55392-53.086 1.4288 0.46527 0.75282 0.18702 0.9576-0.79116 0.58223-0.85145-0.32673-2.0915 0.22943-2.8462 1.2765-0.73555 1.0205-1.7054 1.628-2.1552 1.35s-0.81784-0.00234-0.81784 0.61258-0.38986 0.87709-0.86635 0.5826-1.6712 0.35395-2.655 1.441-2.2814 1.977-2.8836 1.9776c-0.60226 6.7e-4 -2.3912 1.116-3.9754 2.4784-1.5842 1.3624-3.2406 2.2546-3.6809 1.9825s-1.1261 0.0322-1.5241 0.6761c-0.48136 0.77885-0.2534 0.92265 0.6809 0.42953 0.77248-0.40771 0.27951 0.18776-1.0955 1.3233-1.375 1.1355-3.0401 2.0745-3.7003 2.0868-0.66017 0.0122-1.659 0.80974-2.2196 1.7722s-1.033 1.3967-1.0497 0.96482c-0.01673-0.43185-0.94301-0.29678-2.0584 0.30017-1.1154 0.59695-1.7209 1.5823-1.3455 2.1897 0.4118 0.66631 0.22459 0.82132-0.47199 0.39081-0.63498-0.39244-1.1545-0.23697-1.1545 0.34549s-0.8449 1.059-1.8776 1.059c-1.9883 0-4.4932 2.2959-3.5423 3.2468 0.30956 0.30956-0.81667 0.86582-2.5027 1.2361s-3.4057 1.2006-3.8215 1.8452-2.4435 2.0302-4.506 3.0793-3.75 2.3132-3.75 2.809-0.45318 0.62146-1.0071 0.27914c-0.55388-0.34231-1.277 0.0811-1.607 0.94099-0.32996 0.85986-1.4783 1.5634-2.552 1.5634s-1.6739 0.45-1.334 1c0.36058 0.58342-0.65628 1-2.441 1h-3.059zm194 62.122c0-0.20765 0.7875-0.99515 1.75-1.75 1.5861-1.2439 1.6214-1.2085 0.37756 0.37756-1.3064 1.6658-2.1276 2.1955-2.1276 1.3724zm16.079-26.206c0.048-1.165 0.28494-1.4019 0.60416-0.60417 0.28887 0.72187 0.25335 1.5844-0.0789 1.9167-0.3323 0.33229-0.56864-0.25834-0.52522-1.3125zm-124.41-8.0833c-0.36667-0.36666-0.66667-12.981-0.66667-28.031 0-24.915 0.15336-27.424 1.7132-28.022 2.4273-0.93143 56.787 27.022 56.787 29.201 0 1.1092-8.2929 5.5704-27 14.525-25.98 12.436-29.37 13.791-30.833 12.327z" fill="#fe0a36"/>
  <path d="m0 112.5v-112.5h225v39c0 37.101-0.0933 39.093-1.9167 40.917-1.0542 1.0542-2.1792 1.6542-2.5 1.3333-0.32083-0.32083-0.58333-0.11813-0.58333 0.45045 0 0.8759-7.1865 6.2996-8.347 6.2996-0.21447 0-0.60253-3.3127-0.86237-7.3615-0.92723-14.448-9.2805-26.806-22.554-33.366l-7.6328-3.7723h-136.1l-6.7408 3.1931c-8.7244 4.1328-15.933 11.342-20.066 20.066l-3.1931 6.7408v78l3.1104 6.5c4.5566 9.5223 10.139 15.272 19.152 19.728l7.6315 3.7723 129.11 1.0358-53.809 0.23211c-40.779 0.1759-53.634 0.51541-53.086 1.402 0.47126 0.76251 0.19762 0.96831-0.78577 0.59094-0.85145-0.32673-2.0915 0.22943-2.8462 1.2765-0.73555 1.0205-1.7054 1.628-2.1552 1.35s-0.81784-0.00234-0.81784 0.61258-0.38986 0.87709-0.86635 0.5826-1.6712 0.35395-2.655 1.441-2.2814 1.977-2.8836 1.9776c-0.60226 6.7e-4 -2.3912 1.116-3.9754 2.4784-1.5842 1.3624-3.2406 2.2546-3.6809 1.9825s-1.1261 0.0322-1.5241 0.6761c-0.48136 0.77885-0.2534 0.92265 0.6809 0.42953 0.77248-0.40771 0.27951 0.18776-1.0955 1.3233-1.375 1.1355-3.0401 2.0745-3.7003 2.0868-0.66017 0.0122-1.659 0.80974-2.2196 1.7722s-1.033 1.3967-1.0497 0.96482c-0.01673-0.43185-0.94301-0.29678-2.0584 0.30017-1.1154 0.59695-1.7209 1.5823-1.3455 2.1897 0.4118 0.66631 0.22459 0.82132-0.47199 0.39081-0.63498-0.39244-1.1545-0.23697-1.1545 0.34549s-0.8449 1.059-1.8776 1.059c-1.9883 0-4.4932 2.2959-3.5423 3.2468 0.30956 0.30956-0.81667 0.86582-2.5027 1.2361s-3.4057 1.2006-3.8215 1.8452-2.4435 2.0302-4.506 3.0793-3.75 2.3132-3.75 2.809-0.45318 0.62146-1.0071 0.27914c-0.55388-0.34231-1.277 0.0811-1.607 0.94099-0.32996 0.85986-1.4783 1.5634-2.552 1.5634s-1.6739 0.45-1.334 1c0.36058 0.58342-0.65628 1-2.441 1h-3.059zm86 0c0-18.468 0.35451-28.5 1.0071-28.5 1.7541 0 54.528 26.735 55.801 28.269 0.95796 1.1543 0.94825 1.6841-0.0457 2.4919-2.0147 1.6375-54.008 26.239-55.454 26.239-1.0469 0-1.3081-5.6916-1.3081-28.5z" fill="#fe5170"/>
  <path d="m0 81.5v-81.5h225v7.0314c0 5.3156-0.36462 7.1713-1.4943 7.6048-0.82184 0.31537-1.286 0.91044-1.0314 1.3224 0.25459 0.41194-0.64799 1.2551-2.0058 1.8738-1.3578 0.61863-2.4686 1.5703-2.4686 2.1148 0 0.54453-0.675 0.73103-1.5 0.41445-0.94984-0.36449-1.5 0.01379-1.5 1.0314 0 0.88384-0.3375 1.4973-0.75 1.3632-1.1685-0.37983-8.25 4.2831-8.25 5.4323 0 0.56399-0.69837 0.75744-1.5519 0.4299-0.85356-0.32754-1.297-0.18309-0.98548 0.32102 0.31156 0.5041-0.3425 1.205-1.4534 1.5576-1.111 0.3526-3.3675 1.775-5.0145 3.1609-1.647 1.3859-2.9946 2.2373-2.9946 1.8919 0-0.34532-0.98485 0.28968-2.1886 1.4111s-2.6662 2.0395-3.25 2.0402c-1.5218 0.0018-6.6426 4.5843-5.9248 5.3021 0.33062 0.33062-0.99596 0.16015-2.948-0.37882-2.2004-0.60755-28.562-0.87441-69.369-0.70222l-65.82 0.27773-6.7408 3.1931c-8.7244 4.1328-15.933 11.342-20.066 20.066l-3.1931 6.7408v40.262c0 37.006-0.1374 40.306-1.699 40.801-0.95509 0.30305-1.4622 1.156-1.1583 1.9482 0.38467 1.0024-0.07062 1.2913-1.5777 1.0011-1.1698-0.22528-1.8561 0.0164-1.5327 0.53975 0.51379 0.83134-0.14316 1.1062-2.108 0.88204-0.31665-0.0361-1.3819 0.86388-2.3673 2-0.98536 1.1361-2.3013 2.0657-2.9243 2.0657-0.83434 0-1.1327-21.468-1.1327-81.5zm86 31c0-18.468 0.35451-28.5 1.0071-28.5 1.7541 0 54.528 26.735 55.801 28.269 0.95796 1.1543 0.94825 1.6841-0.0457 2.4919-2.0147 1.6375-54.008 26.239-55.454 26.239-1.0469 0-1.3081-5.6916-1.3081-28.5z" fill="#fe2d53"/>
  <path d="m86 112.5c0-18.468 0.35451-28.5 1.0071-28.5 1.7541 0 54.528 26.735 55.801 28.269 0.95796 1.1543 0.94825 1.6841-0.0457 2.4919-2.0147 1.6375-54.008 26.239-55.454 26.239-1.0469 0-1.3081-5.6916-1.3081-28.5zm-85.981-64.985-0.054996-47.515h72.684c39.976 0 72.347 0.3375 71.934 0.75-0.70907 0.70907-1.0743 0.82189-3.6424 1.125-0.58246 0.06875-0.73793 0.64453-0.34549 1.2795 0.43377 0.70186 0.27518 0.88359-0.40451 0.46353-0.61492-0.38004-1.9969 0.18793-3.0712 1.2622-1.0742 1.0742-2.2156 1.6906-2.5365 1.3698-0.32083-0.32083-0.58333 0.15254-0.58333 1.0519 0 0.97433-0.55412 1.4226-1.371 1.1092-0.75402-0.28935-1.6578 0.22147-2.0084 1.1351-0.36889 0.96131-1.2659 1.4201-2.129 1.0889-0.82036-0.3148-1.4916-0.13649-1.4916 0.39625 0 0.53274-0.675 0.96862-1.5 0.96862s-1.5 0.70156-1.5 1.559-0.45 1.2809-1 0.94098-1-0.11492-1 0.5-0.45318 0.83795-1.0071 0.49564c-0.55389-0.34232-1.277 0.08112-1.607 0.94098-0.32996 0.85986-1.02 1.5634-1.5334 1.5634-0.86835 0-6.7302 3.7869-7.8525 5.0729-0.71934 0.82428-4.3658 2.273-5.25 2.0858-0.4125-0.08732-0.75 0.5428-0.75 1.4003s-0.45 1.2809-1 0.94098-1-0.14148-1 0.44098-0.5625 0.94652-1.25 0.80902-1.1375 0.3125-1 1-0.425 1.3062-1.25 1.375-1.9306 0.18125-2.457 0.25-1.6145 1.0243-2.4182 2.1234c-0.80371 1.0991-1.7703 1.6894-2.148 1.3117-0.37769-0.37769-1.8187 0.52302-3.2022 2.0016-1.3835 1.4786-2.9113 2.5758-3.3951 2.4383s-0.87955 0.22656-0.87955 0.80902-0.45 0.7809-1 0.44098-1-0.14148-1 0.44098c0 0.72638 14.213 1.1308 45.25 1.2876 44.944 0.22706 44.817 0.23214-18.75 0.75l-64 0.52139-6.7408 3.1931c-13.099 6.205-22.135 18.813-23.431 32.693-0.54166 5.8005-0.99052 6.9491-3.3809 8.6512-1.516 1.0795-3.1942 1.9626-3.7295 1.9626s-1.5538 0.69957-2.2634 1.5546-2.098 1.9869-3.0853 2.5153c-1.7147 0.91768-1.7975-1.1666-1.8501-46.555z" fill="#fe1a43"/>
  <path d="m86 112.5c0-18.468 0.35451-28.5 1.0071-28.5 1.7541 0 54.528 26.735 55.801 28.269 0.95796 1.1543 0.94825 1.6841-0.0457 2.4919-2.0147 1.6375-54.008 26.239-55.454 26.239-1.0469 0-1.3081-5.6916-1.3081-28.5zm-85.352-61.185c-0.35666-0.35666-0.64848-12.048-0.64848-25.982v-25.333h38.441c27.978 0 38.635 0.31423 39.155 1.1545 0.41437 0.67046 0.27698 0.88471-0.32768 0.51101-0.57266-0.35392-1.5973 0.026547-2.277 0.84549-0.67966 0.81894-1.6935 1.489-2.2531 1.489s-1.6628 0.7875-2.4517 1.75c-0.93687 1.143-1.2088 1.2297-0.78406 0.25 0.35769-0.825-0.25956-0.46776-1.3717 0.79387-1.1121 1.2616-2.1589 2.2451-2.3262 2.1855-0.89078-0.31751-4.415 1.5538-5.1156 2.7163-0.4463 0.74054-1.2338 1.0854-1.75 0.76639-0.5162-0.31903-0.93854-0.10349-0.93854 0.47897s-0.6199 1.059-1.3776 1.059c-0.75766 0-1.9336 0.67004-2.6133 1.489-0.67966 0.81894-1.7473 1.1968-2.3724 0.83967s-0.82062-0.2986-0.43431 0.13006c0.94353 1.047-1.9263 3.8299-3.162 3.0662-0.53623-0.33141-1.5479 0.3149-2.2482 1.4362s-1.84 2.0388-2.5327 2.0388-2.1759 0.91641-3.2959 2.0365c-1.1201 1.1201-2.5826 1.7229-3.25 1.3397-0.66744-0.38324-0.89745-0.34608-0.51114 0.08257 0.66892 0.74225-1.4179 3.5413-2.6402 3.5413-0.31939 0-4.3387 2.475-8.9319 5.5s-8.864 5.5-9.4907 5.5-1.1395 0.675-1.1395 1.5-0.70156 1.5-1.559 1.5-1.2841 0.44485-0.94806 0.98855-0.01532 0.74822-0.78077 0.45449c-0.76545-0.29373-1.9689 0.16142-2.6744 1.0115s-1.7373 1.5455-2.2929 1.5455-1.7837 0.89182-2.7291 1.9818-2.0106 1.69-2.3673 1.3333z" fill="#fe0a36"/>
 </g>
</svg>
