<svg width="745.85" height="150.49" version="1.1" viewBox="0 0 745.85 150.49" xmlns="http://www.w3.org/2000/svg">
 <g transform="matrix(.55248 0 0 .6796 4.2823 -39.027)" stroke-width="3.0945">
  <path d="m64.144 278.32c-21.091-1.7659-40.845-5.6899-61.295-12.176l-10.6-3.3619v-94.619c0-52.041 0.23846-94.619 0.52992-94.619s4.8815 1.4136 10.2 3.1412c18.853 6.1243 32.294 8.9471 50.095 10.521 12.213 1.0799 65.734 0.52393 77.175-0.80165 20.648-2.3924 40.239-5.7305 91.2-15.54 57.545-11.077 77.865-13.48 113.6-13.438 33.985 0.04029 58.151 3.6131 82.225 12.157l9.1125 3.2338 0.53053 56.963c0.88503 95.028 0.55385 128.81-1.2808 130.64-0.32785 0.32786-5.9041-1.0834-12.392-3.136-27.817-8.8014-35.598-9.7492-79.796-9.72-43.367 0.0286-48.062 0.54767-108.4 11.982-53.281 10.097-80.942 14.783-102 17.279-15.535 1.841-45.633 2.6034-58.905 1.4921z" fill="#d8f5d5"/>
  <path d="m76.249 278.67c-1.98-0.16425-8.64-0.69559-14.8-1.1808-13.333-1.0501-27.289-3.2414-38.345-6.0205-8.8626-2.2278-28.53-8.1375-29.152-8.7598-1.3134-1.3134-1.5875-17.51-1.5971-94.37-0.00964-77.011 0.26103-92.234 1.6649-93.638 0.2323-0.2323 3.7988 0.64407 7.9257 1.9475 27.461 8.6732 41.703 10.935 74.303 11.798 27.903 0.73918 54.233-1.0749 83.2-5.7324 12.429-1.9984 17.664-2.9678 60-11.111 43.975-8.4587 53.012-9.9029 76-12.144 17.379-1.6946 51.4-2.0289 52.916-0.51993 1.3672 1.3611 3.5806 1.3611 2.4491 0-0.65039-0.7824 0.0681-0.9502 3.302-0.77112 5.7814 0.32015 7.8983 0.87629 7.5308 1.9786-0.17388 0.52164-1.1207 1.1384-2.104 1.3705-5.6787 1.3406 3.0114 5.0345 12.106 5.146 6.421 0.07874 7.4281 0.5627 4.4679 2.147-1.6788 0.89845-6.5088 0.71157-13.867-0.53656-2.2336-0.37884-2.9584-0.28775-2.4 0.30163 1.2781 1.349 14.196 4.164 19.109 4.164 2.4699 0 4.4907 0.36 4.4907 0.8 0 0.44234 2.0964 0.8 4.6891 0.8 4.5126 0 4.6753 0.07193 4.3236 1.9119-0.87809 4.5934 7.3972 16.176 13.006 18.204 1.9512 0.70555 2.7574 1.5664 3.1078 3.3184 0.26023 1.3012 0.47315 30.581 0.47315 65.066v62.7l-3.4 0.0176c-5.8842 0.0304-14.2 5.1867-14.2 8.8048 0 2.2597-2.946 2.4176-14.42 0.77303-35.202-5.0453-67.321-3.8326-115.25 4.3516-8.9789 1.5331-19.745 3.7299-23.925 4.8818s-9.8223 2.159-12.538 2.238c-4.6876 0.13624-7.4326 1.1342-5.2566 1.9111 2.0716 0.73963-0.0302 1.8222-3.5378 1.8222-3.0172 0-3.5539-0.22009-3.1437-1.2891 0.36205-0.9435 0.15299-1.158-0.77984-0.8-0.70098 0.26896-1.7851 0.48904-2.4091 0.48904s-1.1346 0.53999-1.1346 1.2c0 0.95556-1.1733 1.2-5.76 1.2-6.7352 0-6.5056 1.0578 0.50693 2.3353 6.8036 1.2394 9.3097 1.1433 8.7424-0.33528-0.55376-1.4431-0.40585-1.4483 7.478-0.26285l6.2327 0.93715-4 1.052c-2.2 0.5786-9.22 1.4344-15.6 1.9019-11.908 0.87239-16.637 1.9108-14.383 3.1582 1.3211 0.731 5.2585 1.1053 9.7826 0.9299 2.0638-0.08 3-0.48601 3-1.3011 0-1.6018 3.7084-2.4532 5.2202-1.1984 1.4501 1.2034 0.19521 3.1832-2.0176 3.1832-0.7708 0-2.7967 0.48514-4.502 1.0781-5.898 2.0507-7.5052 2.2649-6.9937 0.93182 0.65879-1.7168-1.9609-1.5599-6.2195 0.37254-1.918 0.87033-4.31 1.5903-5.3155 1.6-1.5879 0.0153-1.7144-0.19487-0.963-1.599 0.88176-1.6476 0.48085-3.1835-0.83096-3.1835-0.40022 0-0.54507 0.47588-0.32188 1.0575 0.54935 1.4316-2.9905 2.9425-6.8936 2.9425-1.7393 0-3.1624 0.36-3.1624 0.8s0.36 0.8 0.8 0.8 0.8 0.31008 0.8 0.68907c0 0.37898-0.91262 0.5146-2.028 0.30137-1.2306-0.23524-2.6022 0.13195-3.4883 0.93388-1.7972 1.6265-13.837 3.99-17.389 3.4136-1.43-0.23206-2.7192-0.0642-2.8649 0.373-0.89248 2.6774-57.718 7.857-72.63 6.62zm154.48-57.185c3.1048-2.2108 3.0044-3.4817-0.22401-2.836-2.5483 0.50966-5.4525 2.5414-5.4525 3.8145 0 1.2603 3.3413 0.68433 5.6765-0.97847zm9.931-3.1576c0.27605-0.44667 1.7934-1.3518 3.372-2.0113 3.8096-1.5917 12.372-8.666 19.239-15.894 9.0887-9.568 18.199-26.082 18.898-34.254 0.16113-1.8854 0.13094-2.7981-0.0671-2.0281-0.41291 1.6054-3.1153 1.8961-3.719 0.4-0.22193-0.55-0.43523 0.26-0.47399 1.8-0.0388 1.54-0.95592 4.6-2.0381 6.8-1.0822 2.2-1.9789 4.6443-1.9927 5.4319-0.0138 0.78753-0.75234 2.8575-1.6413 4.6-1.5919 3.1203-3.5313 4.1255-4.1837 2.1684-0.21025-0.63078-1.0658-0.148-2.3184 1.3081-1.6825 1.956-2.7701 2.3828-7.1334 2.7997-5.0777 0.48512-5.1483 0.52478-5.1483 2.8919v2.4h5.5231c3.6592 0 5.6374 0.33265 5.8619 0.98574 0.5167 1.5032-7.5098 8.7619-12.257 11.084-2.3169 1.1335-5.9185 3.6725-8.0036 5.642s-4.8647 3.7958-6.1767 4.0582c-2.2208 0.44416-2.2839 0.55148-0.91377 1.5533 1.761 1.2876 2.5028 1.3494 3.1735 0.2641zm24.393-26.788c0-1.5859 0.3514-2.0496 1.4-1.8477 0.77 0.14829 1.4 0.97976 1.4 1.8477s-0.63 1.6994-1.4 1.8477c-1.0486 0.20195-1.4-0.26183-1.4-1.8477zm-24.239 20.322c5.7232-2.7705 6.3959-7.1221 1.1011-7.1221-2.8462 0-4.062 1.3603-4.062 4.5448 0 2.0748-0.37713 2.7052-1.8 3.0088-0.99 0.21126-2.52 0.53636-3.4 0.72244-0.88 0.1861-0.18367 0.38012 1.5474 0.43116 1.7402 0.0513 4.6971-0.65741 6.6136-1.5851zm13.839-9.5221c0.84563-0.54649-0.27655-0.77912-3.8-0.78776-2.8082-7e-3 -5 0.33845-5 0.78776 0 1.0245 7.2146 1.0245 8.8 0zm-17.6-6.0472c0-1.32-1.2644-1.5431-2-0.35278-0.65241 1.0556 0.30417 2.5536 1.2553 1.9658 0.40959-0.25315 0.74472-0.97902 0.74472-1.613zm32.63-17.044c-0.13666-0.70959-0.87542-1.4109-1.6417-1.5585-1.7082-0.32897-2.8296 2.1593-1.3775 3.0567 1.4932 0.92285 3.3117 0.0205 3.0192-1.4982zm69.226-2.9047c6.307-1.6428 10.486-3.9113 15.024-8.1561 5.3096-4.9665 7.4572-9.6675 7.4194-16.241-0.0554-9.612-6.4679-18.537-16.79-23.367-5.419-2.5359-12.437-3.4104-15.91-1.9826-1.5487 0.63676-1.5393 0.69057 0.29388 1.6784 1.7662 0.95175 1.5833 1.0526-2.714 1.4961-2.5343 0.26156-5.0066 0.89529-5.4939 1.4083-0.67335 0.70882 1.0343 0.80731 7.114 0.41028 4.4-0.28734 9.6191-0.74057 11.598-1.0072 3.1995-0.43106 3.4831-0.34633 2.5607 0.76508-0.88377 1.0649-0.64031 1.5526 1.6451 3.2958 3.3331 2.5423 7.8324 4.4184 9.3163 3.8848 0.90056-0.32383 0.87943-0.0592-0.10776 1.3502-1.089 1.5547-1.096 2.1777-0.0622 5.5067 1.4592 4.6988 0.93988 10.865-1.2818 15.22-0.91758 1.7986-1.6683 4.0346-1.6683 4.9688 0 0.98453-0.41184 1.5612-0.97973 1.372-0.53886-0.17962-3.3289 0.50279-6.2 1.5165-9.8873 3.4908-22.824 2.1666-29.037-2.9722-3.9229-3.2444-5.3716-6.1738-6.043-12.22l-0.54766-4.9315-1.7963 4.6712c-2.4195 6.2916-2.2917 9.1067 0.6125 13.491 2.862 4.3209 7.0501 7.2646 12.909 9.0733 2.3554 0.72717 4.6425 1.4382 5.0825 1.5801 2.2234 0.71689 11.005 0.24333 15.056-0.81192zm-23.456-4.7182c0-0.7589 2.3947-1.1414 2.8216-0.45066 0.26006 0.42079-0.26841 0.76507-1.1744 0.76507-0.90596 0-1.6472-0.14149-1.6472-0.31441zm-8.8495-6.6159c-0.55229-1.4526-0.54599-2.3942 0.0198-2.96 0.57297-0.57297 0.82973-0.36648 0.82973 0.66728 0 0.82335 0.59579 2.1554 1.324 2.96 1.2327 1.3622 1.2314 1.463-0.0198 1.463-0.73909 0-1.7083-0.95863-2.1537-2.1303zm-33.755-2.7319 0.19569-3.5378-1.6276 3.0248c-1.6132 2.9982-1.4752 4.9414 0.30948 4.3552 0.50968-0.16742 1.0148-1.8964 1.1224-3.8422zm62.133-3.8594c0.92683-1.0241 1.2943-2.5279 1.124-4.6-0.21309-2.5932-0.56825-3.1215-2.253-3.3514-2.588-0.35318-4.8-2.3552-4.8-4.3444 0-1.2421 0.37529-1.4652 1.8-1.0698 5.6273 1.5618 5.5702 1.5618 5.2682-6e-3 -0.15958-0.82863-0.51742-1.3266-0.7952-1.1066s-1.2483-0.27266-2.1568-1.0948c-2.7505-2.4891-8.1162-0.0879-8.1162 3.6322 0 0.89269 1.62 3.2663 3.6 5.2747 3.8108 3.8654 4.3509 4.988 2.4 4.988-0.66 0-1.2-0.32149-1.2-0.71441 0-1.0113-2.1758-1.7214-3.6-1.1749-0.66 0.25328-1.2 1.1536-1.2 2.0007 0 3.0189 7.5384 4.2087 9.929 1.5671zm-31.244-6.2785c0.22665-1.21 0.63002-3.8614 0.89638-5.892s0.99807-4.3706 1.626-5.2c1.0766-1.4219 1.1432-1.3797 1.1672 0.7392 0.0342 3.0234 1.3588 2.0283 2.5377-1.9065 0.74806-2.4968 0.74345-3.4043-0.0211-4.1664-0.76878-0.76626-1.3101-0.54724-2.5348 1.0257-4.4457 5.7095-8.0457 17.6-5.3286 17.6 0.72513 0 1.4173-0.91882 1.6573-2.2zm-20.285 0.2c0-0.66-0.36-1.2-0.8-1.2s-0.8 0.54-0.8 1.2 0.36 1.2 0.8 1.2 0.8-0.54 0.8-1.2zm40.36-24.457c0.47342-0.46308 0.12103-0.74339-0.93457-0.74339-2.3089 0-4.2254 0.80386-4.2254 1.7723 0 0.91679 3.9827 0.12262 5.16-1.0289zm-91.36 123.48c-1.6139-0.57891-1.1462-2.6254 0.6-2.6254 0.88 0 1.6 0.51875 1.6 1.1528 0 1.3914-0.84661 1.9581-2.2 1.4726zm149.86-187.32c-0.24556-0.39732 0.0896-1.1673 0.74472-1.711 0.96853-0.80381 1.1912-0.75481 1.1912 0.26214 0 1.4935-1.3048 2.47-1.9359 1.4489zm-15.453-0.67776c1.216-0.18388 3.016-0.17897 4 0.01092 0.98395 0.18989-0.011 0.34034-2.211 0.33433-2.2-6e-3 -3.005-0.16137-1.789-0.34525z" fill="#a8ebaf"/>
  <path d="m11.819 267.24c0.59174-1.8644-1.639-2.9439-2.5862-1.2515-0.56158 1.0035-1.387 0.88079-5.6053-0.83322-2.7207-1.1055-6.0118-2.01-7.3136-2.01-2.1992 0-2.4129-0.26917-3.0159-3.8-0.83953-4.9154-0.85168-177.24-0.012768-181.2 0.3719-1.7535 1.1066-3 1.7683-3 0.62262 0 6.9963 1.7631 14.164 3.9181 27.009 8.1203 36.802 9.2577 79.832 9.2712 23.193 0.0073 35.78-0.29931 39.6-0.96468 12-2.0902 23.68-3.1323 25.401-2.2664 2.5325 1.2745 2.6791 2.8418 0.26579 2.8418-1.544 0-2.0667 0.41101-2.0667 1.6251 0 2.2661 2.1469 2.8519 4.0708 1.1108 1.1128-1.0071 3.2688-1.562 6.9702-1.7938 10.329-0.64697 10.959-0.61016 10.959 0.63994 0 0.83274-1.7731 1.5309-6 2.3625-3.3 0.64923-5.4238 1.3033-4.7196 1.4536 1.9519 0.41641 12.936-2.0536 13.55-3.047 0.39062-0.63204 1.438-0.63287 3.7772-3e-3 2.1216 0.57128 3.9265 0.6093 5.2388 0.11036 1.1011-0.41866 8.2462-1.6903 15.878-2.8258 7.6317-1.1356 19.456-3.1231 26.276-4.4167 55.456-10.519 85.213-13.221 125.33-11.378 18.974 0.87162 30.77 2.257 35.205 4.1346 1.0052 0.4256 2.7639 2.8865 4.1735 5.8402 2.6678 5.5898 10.097 13.387 12.756 13.387 0.85926 0 1.8312 0.63 2.1599 1.4 0.32871 0.77 0.75476 10.94 0.94678 22.6l0.34914 21.2-53.564 91.2-14.679 0.0942c-29.608 0.19008-45.507 1.7277-82.273 7.9572-22.85 3.8715-36.38 6.3671-54.006 9.9611-30.723 6.2646-67.605 12.065-87.2 13.714-16.016 1.3477-58.956 1.3712-70.8 0.0389-17.547-1.9739-16.073-1.5608-19.8-5.549-1.996-2.1358-3.4-3.1334-3.4-2.4157 0 2.5724-2.7504 4.7433-6.2347 4.9212-1.8586 0.0949-3.8082 0.60138-4.3323 1.1255-0.73732 0.73729-0.09137 0.95296 2.8542 0.95296 2.3344 0 3.6159 0.30948 3.3128 0.8-0.28753 0.46524 0.50706 0.8 1.8989 0.8 1.7289 0 2.5414 0.46652 2.9267 1.6805 0.79636 2.5091-0.7574 3.6404-3.2026 2.3318-1.5739-0.84235-2.4523-0.87352-4.0538-0.14384-3.2292 1.4713-5.3672 1.2157-4.7993-0.57374zm-3.5699-4.0947c0-0.44-0.315-0.8-0.7-0.8s-1.915-0.18461-3.4-0.41026l-2.7-0.41026 2.8 1.1494c3.4573 1.4192 4 1.4831 4 0.47112zm14.4-13.461c0-1.0838-3.9488-4.4573-4.5333-3.8728-0.2968 0.29681 0.30453 1.4382 1.3363 2.5365 1.8894 2.0112 3.197 2.5578 3.197 1.3363zm190.47-19.632c18.048-4.5849 35.029-13.782 48.209-26.111 10.279-9.6153 17.666-21.823 20.591-34.025 1.4486-6.0445 1.6501-8.6797 1.282-16.771-0.70507-15.499-4.3296-24.423-13.653-33.618-7.3164-7.215-16.2-11.786-27.426-14.112-10.354-2.1454-27.601-1.7248-37.691 0.91908-9.2497 2.4239-18.899 6.3445-24.751 10.057-2.7344 1.7346-6.4659 4.0537-8.2922 5.1537-4.8079 2.8959-18.382 16.398-22.117 22-4.4714 6.7065-7.7507 13.443-9.944 20.428-1.6294 5.1891-1.8752 7.597-1.8752 18.372 0 15.164 0.72593 17.641 8.0171 27.353 6.069 8.0847 10.258 11.922 16.383 15.007 15.685 7.8998 33.787 9.7878 51.268 5.347zm-6.9602-21.919c-0.49069-0.32327-1.1451-1.3981-1.4542-2.3886-0.691-2.2142-2.2028-3.048-6.8536-3.7799-6.9887-1.0998-12.366-6.4978-13.264-13.315-0.69514-5.2771 0.36066-6.1176 10.909-8.6845l9.1548-2.2278 0.42873 6.293c0.46347 6.8028 1.2748 8.3713 3.8995 7.5383 3.5948-1.141 5.4188-9.3435 2.8829-12.964-0.65389-0.93356-5.227-3.4437-10.163-5.578-11.026-4.768-14.36-7.6634-16.229-14.094-0.84339-2.9015-1.1338-5.5731-0.7827-7.2 1.4652-6.7889 6.7974-12.807 14.279-16.116 3.3198-1.4682 4.5977-2.57 5.7736-4.9782 1.1971-2.4516 2.1421-3.2488 4.5583-3.8456 2.7907-0.68927 3.196-0.56944 4.8 1.4193 1.3528 1.6773 2.8307 2.3455 6.4874 2.933 7.1216 1.1441 11.665 6.1031 11.665 12.733 0 3.8376-0.85547 4.4326-9.4666 6.5845-8.8713 2.2169-9.4382 2.113-9.9667-1.8267-0.58062-4.3289-2.1581-5.979-4.5116-4.7194-0.9524 0.50971-2.084 1.8534-2.5146 2.9861-1.5712 4.1325 3.3183 8.035 14.86 11.86 4.0348 1.3372 7.3489 3.0289 8.9676 4.5778 5.1487 4.9266 6.585 15.259 3.1423 22.606-2.0785 4.4352-8.2084 10.591-12.996 13.052-1.8509 0.95109-3.746 2.7907-4.6729 4.536-2.1036 3.9611-6.4811 6.2154-8.9329 4.6002zm-110.45 1.016c9.8129-2.5559 16.592-7.8325 20.097-15.643 5.4989-12.253 2.2647-24.157-8.0689-29.697-6.1013-3.2711-8.4685-3.5928-3.8976-0.52977 3.153 2.1129 4.0931 3.2567 4.4946 5.4689 0.27928 1.5385 1.2375 4.4172 2.1294 6.3972 0.97457 2.1636 1.831 6.3132 2.1465 10.4l0.52493 6.8-3.8412 2.8048c-2.1127 1.5427-4.1998 3.6202-4.6381 4.6168-1.3663 3.1064-15.655 6.0073-20.971 4.2575-2.5512-0.83971-3.4091-0.8016-5.4127 0.24048-2.8188 1.466-4.4691 0.48286-2.7451-1.6355 0.9875-1.2134 0.96574-1.3237-0.17683-0.89627-0.71662 0.26809-2.641 0.18564-4.2765-0.18322l-2.9736-0.67065 1.8123 1.9291c2.3578 2.5097 9.2704 5.9369 11.975 5.9369 1.166 0 3.2691-0.57324 4.6735-1.2739 2.8542-1.4239 6.4941-0.89324 3.8923 0.56741-1.6362 0.91855-1.8577 2.3064-0.36808 2.3064 0.56756 0 3.0985-0.53829 5.6244-1.1962zm20.016-24.848c-0.26259-0.6843-0.0957-2.0343 0.37096-3 0.7633-1.5797 0.85383-1.4549 0.90254 1.2442 0.0567 3.1429-0.46512 3.8624-1.2735 1.7558zm-47.839 10.097c-0.29003-0.46927-1.1361-0.84177-1.8801-0.82778-1.1877 0.0223-1.1647 0.16776 0.18882 1.1917 1.6441 1.2438 2.5628 1.0461 1.6913-0.36395zm21.167-1.5453c0-1.0336-3.2034-4.9079-4.0581-4.9079-1.2917 0-0.8047 1.8301 0.99751 3.7484 1.7857 1.9008 3.0606 2.3838 3.0606 1.1594zm5.6-4.7951c0-2.3799-1.274-4.1128-3.0236-4.1128-0.82575 0-0.96361 0.65453-0.54762 2.6 1.0344 4.8375 3.5712 5.9121 3.5712 1.5128zm-29.054-5.0628c-0.25538-0.63819-0.44494-0.44863-0.48333 0.48333-0.03472 0.84333 0.15434 1.3158 0.42018 1.05 0.26583-0.26584 0.29425-0.95584 0.06312-1.5333zm21.864-3.0756c0.55261-1.3341 0.77849-2.6519 0.50196-2.9284-0.79718-0.79719-3.7126 2.2482-3.7126 3.8781 0 2.3387 2.1066 1.7156 3.2106-0.94964zm5.736-2.5477c-0.57405-0.57405-0.94666-0.62128-0.94666-0.12 0 0.45467 0.24 1.0667 0.53334 1.36 0.29333 0.29334 0.71933 0.34734 0.94666 0.12 0.22734-0.22733-0.01264-0.83933-0.53334-1.36zm242.25 0.13201c10.128-1.6151 19.355-7.4548 23.844-15.092 1.8558-3.1566 2.1557-4.5575 2.1557-10.067 0-5.1159-0.38029-7.1724-1.8954-10.25-2.4994-5.0763-8.4983-10.882-14.258-13.798-4.3404-2.1976-5.2521-2.3525-13.846-2.3525-8.634 0-9.5199 0.15246-14.4 2.4779-9.0325 4.3042-14.952 11.755-16.617 20.916-2.7246 14.99 9.686 27.526 28.617 28.906 0.66 0.0481 3.54-0.28568 6.4-0.74176zm-11.6-7.6527c-10.485-2.6883-15.607-8.494-15.592-17.674 0.0183-11.28 10.793-20.275 24.509-20.462 4.2453-0.0578 5.5304 0.30527 9.4167 2.6607 6.7236 4.0749 9.0042 6.8139 10.484 12.592 1.1811 4.6103 1.1806 5.3754-6e-3 9.4581-1.6307 5.6094-6.4461 10.684-11.599 12.224-3.8116 1.1391-14.535 1.8876-17.212 1.2013zm11.8-11.629c2.6703-3.1558 1.5255-7.2693-2.644-9.5008-0.83561-0.4472-1.9412-1.6014-2.4568-2.5648-0.93242-1.7423-0.92581-1.7441 1.2181-0.33933 2.3031 1.509 5.2827 1.1514 5.2827-0.63415 0-1.532-3.9893-3.9048-6.565-3.9048-3.1218 0-5.435 2.3634-5.435 5.553 0 2.1161 0.63339 3.1473 3.2 5.2099 1.76 1.4144 3.2 3.1071 3.2 3.7617 0 1.0046-0.22797 0.98379-1.463-0.13389-1.8238-1.6505-3.637-1.6905-4.9495-0.10898-0.82424 0.99315-0.75383 1.4962 0.38559 2.7553 2.5515 2.8194 7.8029 2.7716 10.227-0.0931zm-250.2 3.3228c-0.88-0.37815-2.32-0.68755-3.2-0.68755h-1.6l1.6 0.68755c0.88 0.37815 2.32 0.68754 3.2 0.68754h1.6zm42.583-62.883c-0.26584-0.26583-0.95584-0.29425-1.5333-0.06316-0.63819 0.25538-0.44863 0.44495 0.48333 0.48333 0.84333 0.03474 1.3158-0.15434 1.05-0.42018zm16.017-1.6681c-0.77-0.20122-2.03-0.20122-2.8 0s-0.14 0.36586 1.4 0.36586 2.17-0.16464 1.4-0.36586zm-1.4-3.4485c0-0.93897-0.6149-0.93897-2.8 0-1.4178 0.60925-1.3495 0.69395 0.6 0.74377 1.21 0.03092 2.2-0.30377 2.2-0.74377zm-5.8167-5.2833c-0.26584-0.26583-0.95584-0.29426-1.5333-0.06316-0.63819 0.25538-0.44863 0.44495 0.48333 0.48333 0.84333 0.03474 1.3158-0.15434 1.05-0.42018zm28.217-1.2377c-1.54-0.42722-4.24-1.158-6-1.624-2.9154-0.77189-3.0399-0.90757-1.4001-1.5253 6.9802-2.6294 22.737-3.693 21.345-1.4408-0.53403 0.86409-9.593 5.5467-10.522 5.4391-0.34255-0.03968-1.8828-0.4217-3.4228-0.84892zm8-3.0789c0.91309-0.59009 0.58967-0.77843-1.3528-0.78775-1.404-0.0067-2.7753 0.34775-3.0472 0.78775-0.6337 1.0253 2.8134 1.0253 4.4 0zm15.6 0c0.27193-0.44 1.1932-0.8 2.0472-0.8 0.85404 0 1.5528 0.36 1.5528 0.8s-0.92125 0.8-2.0472 0.8c-1.1611 0-1.8332-0.34627-1.5528-0.8zm11.077-1.7072c1.0586-0.61532 1.7272-0.60843 2.36 0.02433 0.64387 0.64387 0.24396 0.87631-1.4771 0.85857-2.0689-0.02133-2.1778-0.13023-0.8829-0.8829zm-18.277-0.69277c-0.28924-0.468 0.54076-0.8 2-0.8s2.2892 0.332 2 0.8c-0.27194 0.44-1.1719 0.8-2 0.8-0.82807 0-1.7281-0.36-2-0.8zm7.2 0c-0.28153-0.45552 0.40743-0.8 1.6-0.8s1.8815 0.34448 1.6 0.8c-0.27194 0.44-0.99194 0.8-1.6 0.8-0.60807 0-1.3281-0.36-1.6-0.8zm13.2-1.4716c0-0.85694 3.651-2.5367 5.4376-2.5018 1.1122 0.02173 1.0156 0.31547-0.52627 1.6-1.9076 1.5892-4.9114 2.1407-4.9114 0.9018zm-14.038-1.6669c0.59111-0.95644 5.1951-1.9711 5.8721-1.2942 0.28579 0.2858-0.01 0.85454-0.65721 1.2639-1.5289 0.96692-5.8091 0.9918-5.2149 0.0303z" fill="#7be7aa"/>
  <path d="m54.649 263.94c-4.18-0.37451-10.634-1.2302-14.341-1.9015s-7.0378-1.0374-7.4-0.8135c-0.36224 0.22388-0.65862 0.0258-0.65862-0.44016 0-0.46597-0.49145-0.84722-1.0921-0.84722-2.3526 0-4.9862-3.1252-6.0144-7.137-0.65876-2.5703-1.6583-4.4161-2.6906-4.9686-0.90338-0.48347-2.9386-2.1875-4.5227-3.7868-1.5841-1.5992-3.8701-3.6277-5.08-4.5077l-2.1998-1.6 1.0601-130h3.6841c4.6129 0 9.3094-2.9764 10.971-6.9527l1.1677-2.7947 4.8914 0.56771c2.6903 0.31224 5.989 0.88249 7.3305 1.2672 6.1966 1.7772 25.066 2.4967 52.495 2.0018 15.62-0.28183 30.378-0.77721 32.795-1.1008 4.2804-0.57308 4.4635-0.70337 7.009-4.9884 1.4376-2.42 3.2337-5.12 3.9914-6 0.75769-0.88 1.3836-1.9447 1.391-2.366 7e-3 -0.4213 2.8234-1.2005 6.258-1.7315s6.7232-1.1492 7.3082-1.3737c1.1551-0.44325 4.4473 1.5265 4.4473 2.6609 0 0.38445-0.81 0.81403-1.8 0.95464-1.1815 0.16779-1.8 0.80546-1.8 1.8556 0 2.1633 3.248 2.5666 5.3498 0.66429 1.1856-1.0731 2.9374-1.4758 6.5567-1.5075 2.7164-0.02377 5.2887-0.23109 5.7162-0.4607 1.6-0.85936 4.7773-0.27999 4.7773 0.87112 0 1.1696-2.6155 1.9947-8.6731 2.7361-3.7569 0.45983-4.8659 1.3072-1.6603 1.2686 3.7881-0.04562 12.495-2.1398 13.124-3.1564 0.4346-0.7032 1.393-0.72012 3.817-0.06741 2.1216 0.57128 3.9265 0.6093 5.2388 0.11036 1.1011-0.41866 8.2462-1.6903 15.878-2.8258 7.6317-1.1355 19.456-3.123 26.276-4.4167 55.456-10.519 85.213-13.221 125.33-11.378 18.974 0.87162 30.77 2.257 35.205 4.1346 1.0052 0.4256 2.7639 2.8865 4.1735 5.8402 2.6678 5.5898 10.097 13.387 12.756 13.387 0.85926 0 1.8312 0.63 2.1599 1.4 0.32871 0.77 0.75476 10.94 0.94678 22.6l0.34914 21.2-53.564 91.2-14.679 0.0942c-29.608 0.19008-45.507 1.7277-82.273 7.9572-22.942 3.8871-36.469 6.3834-54.09 9.9815-29.132 5.9487-67.786 12.063-85.917 13.589-13.4 1.1284-54.519 1.6296-64 0.78006zm158.47-33.895c18.048-4.5849 35.029-13.782 48.209-26.111 10.279-9.6153 17.666-21.823 20.591-34.025 1.4486-6.0445 1.6501-8.6797 1.282-16.771-0.70507-15.499-4.3296-24.423-13.653-33.618-7.3164-7.215-16.2-11.786-27.426-14.112-10.354-2.1454-27.601-1.7248-37.691 0.91908-9.2497 2.4239-18.899 6.3445-24.751 10.057-2.7344 1.7346-6.4659 4.0537-8.2922 5.1537-4.8079 2.8959-18.382 16.398-22.117 22-4.4714 6.7065-7.7507 13.443-9.944 20.428-1.6294 5.1891-1.8752 7.597-1.8752 18.372 0 15.164 0.72593 17.641 8.0171 27.353 6.069 8.0847 10.258 11.922 16.383 15.007 15.685 7.8998 33.787 9.7878 51.268 5.347zm-6.9602-21.919c-0.49069-0.32327-1.1451-1.3981-1.4542-2.3886-0.691-2.2142-2.2028-3.048-6.8536-3.7799-6.9887-1.0998-12.366-6.4978-13.264-13.315-0.69514-5.2771 0.36066-6.1176 10.909-8.6845l9.1548-2.2278 0.42873 6.293c0.46347 6.8028 1.2748 8.3713 3.8995 7.5383 3.5948-1.141 5.4188-9.3435 2.8829-12.964-0.65389-0.93356-5.227-3.4437-10.163-5.578-11.026-4.768-14.36-7.6634-16.229-14.094-0.84339-2.9015-1.1338-5.5731-0.7827-7.2 1.4652-6.7889 6.7974-12.807 14.279-16.116 3.3198-1.4682 4.5977-2.57 5.7736-4.9782 1.1971-2.4516 2.1421-3.2488 4.5583-3.8456 2.7907-0.68927 3.196-0.56944 4.8 1.4193 1.3528 1.6773 2.8307 2.3455 6.4874 2.933 7.1216 1.1441 11.665 6.1031 11.665 12.733 0 3.8376-0.85547 4.4326-9.4666 6.5845-8.8713 2.2169-9.4382 2.113-9.9667-1.8267-0.58062-4.3289-2.1581-5.979-4.5116-4.7194-0.9524 0.50971-2.084 1.8534-2.5146 2.9861-1.5712 4.1325 3.3183 8.035 14.86 11.86 4.0348 1.3372 7.3489 3.0289 8.9676 4.5778 5.1487 4.9266 6.585 15.259 3.1423 22.606-2.0785 4.4352-8.2084 10.591-12.996 13.052-1.8509 0.95109-3.746 2.7907-4.6729 4.536-2.1036 3.9611-6.4811 6.2154-8.9329 4.6002zm-106.54-0.16947c11.588-4.3357 18.166-12.935 18.68-24.418 0.32938-7.366-0.88409-10.969-5.2475-15.58-3.5937-3.7976-12.341-8.7704-13.426-7.6332-0.31543 0.33037 0.0999 1.0084 0.92295 1.5068 4.943 2.9932 6.5198 4.3342 6.743 5.7343 0.13783 0.86453 1.2986 3.7319 2.5796 6.3719 1.894 3.9035 2.3887 6.1139 2.6483 11.835 0.31371 6.9119 0.28276 7.054-1.7741 8.1441-2.2147 1.1738-5.1133 3.8638-6.7513 6.2652-0.88833 1.3024-3.5911 2.2857-9.3421 3.3989-3.1146 0.60284-10.174 0.39058-12.184-0.36636-1.2145-0.45733-2.5695-0.29873-4.0904 0.47881-2.4501 1.2525-3.8156 0.81467-2.2723-0.72863 1.48-1.48 1.1227-2.0384-1.04-1.625-2.9937 0.57229-4.664-0.29584-3.7413-1.9446 0.57058-1.0196 0.20661-2.0709-1.4568-4.2081-6.1958-7.9604-5.1096-18.913 2.4711-24.917 4.2533-3.3687 10.236-5.5305 15.322-5.5367 3.8564-5e-3 4.3053-0.20517 5.6164-2.5084 0.78374-1.3768 1.247-2.6813 1.0295-2.8988-0.86131-0.86132-13.756-0.15563-17.605 0.96352-5.3102 1.5437-12.147 6.3582-15.202 10.705-2.0592 2.9298-2.4657 4.3354-2.722 9.4108-0.53806 10.655 0.13157 12.761 5.8478 18.394 5.7389 5.6548 10.378 8.6068 15.792 10.049 3.2482 0.86522 3.9611 0.82971 5.2-0.25905 1.8921-1.6627 4.7828-2.5074 5.3638-1.5674 0.2545 0.41179-0.0752 0.95513-0.73267 1.2074s-1.1954 0.86202-1.1954 1.3549c0 1.2287 4.9854 0.4608 10.568-1.6277zm16.271-23.418c-0.33516-0.77-0.33516-2.03 0-2.8 0.58038-1.3333 0.62535-1.3333 0.94425 0 0.18417 0.77 0.18417 2.03 0 2.8-0.3189 1.3333-0.36387 1.3333-0.94425 0zm-27.188 6.6963c-1.4453-2.7948-3.3343-4.3857-4.4148-3.718-1.3953 0.86235-0.95369 2.0689 1.6463 4.4976 2.9374 2.7439 4.3804 2.3376 2.7685-0.77964zm6.2646-1.3618c0.80539-2.0988 0.56408-3.1486-1.1456-4.9837-2.2375-2.4017-3.1688-2.1954-3.1688 0.70174 0 4.4667 3.0731 7.5167 4.3144 4.282zm-8.1774-8.0586c0.80465-0.7282 1.463-2.3609 1.463-3.6282 0-2.1519-0.11894-2.2382-1.8-1.306-0.99 0.54896-2.0355 0.93314-2.3233 0.85372-0.2878-0.0794-0.96188 0.38411-1.498 1.03-0.5979 0.72043-0.65333 1.1744-0.1434 1.1744 0.45721 0 1.038-0.45 1.2906-1s0.25937-0.19323 0.01504 0.79284c-0.4351 1.7559 0.07048 3.4072 1.0432 3.4072 0.26938 0 1.1481-0.59579 1.9528-1.324zm7.863-3.5011c0-0.95773-2.2565-1.9851-2.9146-1.327-0.70057 0.70057 0.48772 2.1521 1.7618 2.1521 0.63403 0 1.1528-0.3713 1.1528-0.82511zm240.8-0.81622c10.128-1.6151 19.355-7.4548 23.844-15.092 1.8558-3.1566 2.1557-4.5575 2.1557-10.067 0-5.1159-0.38029-7.1724-1.8954-10.25-2.4994-5.0763-8.4983-10.882-14.258-13.798-4.3404-2.1976-5.2521-2.3525-13.846-2.3525-8.634 0-9.5199 0.15246-14.4 2.4779-9.0325 4.3042-14.952 11.755-16.617 20.916-2.7246 14.99 9.686 27.526 28.617 28.906 0.66 0.0481 3.54-0.28568 6.4-0.74176zm-11.6-7.6527c-10.485-2.6883-15.607-8.494-15.592-17.674 0.0183-11.28 10.793-20.275 24.509-20.462 4.2453-0.0578 5.5304 0.30527 9.4167 2.6607 6.7236 4.0749 9.0042 6.8139 10.484 12.592 1.1811 4.6103 1.1806 5.3754-6e-3 9.4581-1.6307 5.6094-6.4461 10.684-11.599 12.224-3.8116 1.1391-14.535 1.8876-17.212 1.2013zm11.8-11.629c2.6703-3.1558 1.5255-7.2693-2.644-9.5008-0.83561-0.4472-1.9412-1.6014-2.4568-2.5648-0.93242-1.7423-0.92581-1.7441 1.2181-0.33933 2.3031 1.509 5.2827 1.1514 5.2827-0.63415 0-1.532-3.9893-3.9048-6.565-3.9048-3.1218 0-5.435 2.3634-5.435 5.553 0 2.1161 0.63339 3.1473 3.2 5.2099 1.76 1.4144 3.2 3.1071 3.2 3.7617 0 1.0046-0.22797 0.98379-1.463-0.13389-1.8238-1.6505-3.637-1.6905-4.9495-0.10898-0.82424 0.99315-0.75383 1.4962 0.38559 2.7553 2.5515 2.8194 7.8029 2.7716 10.227-0.0931zm-191.2-61.242c-0.99-0.19068-2.61-0.19068-3.6 0s-0.18 0.3467 1.8 0.3467 2.79-0.15601 1.8-0.3467zm-1.195-3.2354c0.18918-0.57626-0.35022-1-1.273-1-2.1941 0-4.1321 0.81435-4.1321 1.7363 0 1.1229 5.0192 0.43916 5.405-0.73628zm-11.786-5.1384c-1.6145-0.60626-1.7624-0.88185-0.8-1.4905 1.5781-0.99797 5.5808-0.97729 5.5808 0.02883 0 0.44-0.51 0.8-1.1333 0.8-0.62333 0-1.2533 0.31622-1.4 0.7027-0.15088 0.3976-1.1267 0.37976-2.2474-0.04108zm35.733-1.1756c-0.196-0.19601-1.229-0.51461-2.2954-0.708-1.0665-0.19339-3.3035-0.824-4.9711-1.4013l-3.0321-1.0497 5.873-1.3436c9.6875-2.2162 15.873-2.4163 15.873-0.51353 0 0.37579-2.07 1.6698-4.6 2.8756-4.7944 2.285-6.2483 2.7395-6.8473 2.1406zm6.2099-3.4255c0.53835-0.87106-1.7605-1.4873-3.7626-1.0087-0.77 0.1841-1.4 0.65274-1.4 1.0414 0 0.94058 4.579 0.91152 5.1626-0.03276zm15.237-0.06055c0.27193-0.44 1.1932-0.8 2.0472-0.8 0.85404 0 1.5528 0.36 1.5528 0.8s-0.92125 0.8-2.0472 0.8c-1.1611 0-1.8332-0.34627-1.5528-0.8zm11.077-1.7072c1.0586-0.61532 1.7272-0.60843 2.36 0.02433 0.64387 0.64387 0.24396 0.87631-1.4771 0.85857-2.0689-0.02133-2.1778-0.13023-0.8829-0.8829zm-18.385-0.8676c-0.21251-0.34385 0.73611-0.62518 2.108-0.62518 1.3719 0 2.2861 0.33709 2.0315 0.7491-0.54208 0.8771-3.577 0.78625-4.1395-0.12392zm7.308 0.17482c-0.28153-0.45552 0.40743-0.8 1.6-0.8s1.8815 0.34448 1.6 0.8c-0.27194 0.44-0.99194 0.8-1.6 0.8-0.60807 0-1.3281-0.36-1.6-0.8zm13.2-1.4716c0-0.85694 3.651-2.5367 5.4376-2.5018 1.1122 0.02173 1.0156 0.31547-0.52627 1.6-1.9076 1.5892-4.9114 2.1407-4.9114 0.9018zm-14.038-1.6669c0.59111-0.95644 5.1951-1.9711 5.8721-1.2942 0.28579 0.2858-0.01 0.85454-0.65721 1.2639-1.5289 0.96692-5.8091 0.9918-5.2149 0.0303z" fill="#90e68e"/>
  <path d="m57.449 263.86c-5.72-0.35634-13.434-1.1855-17.141-1.8425s-7.0378-1.0114-7.4-0.78758c-0.36224 0.22388-0.65862 0.0258-0.65862-0.44016 0-0.46597-0.49145-0.84722-1.0921-0.84722-2.3526 0-4.9862-3.1252-6.0144-7.137-0.65876-2.5703-1.6583-4.4161-2.6906-4.9686-0.90338-0.48347-2.9386-2.1875-4.5227-3.7868-1.5841-1.5992-3.8701-3.6277-5.08-4.5077l-2.1998-1.6 1.0601-130h3.6841c4.6129 0 9.3094-2.9764 10.971-6.9527l1.1677-2.7947 4.8914 0.56771c2.6903 0.31224 5.989 0.88249 7.3305 1.2672 6.1966 1.7772 25.066 2.4967 52.495 2.0018 15.62-0.28183 30.378-0.77721 32.795-1.1008 4.2804-0.57308 4.4635-0.70337 7.009-4.9884 1.4376-2.42 3.2337-5.12 3.9914-6 0.75769-0.88 1.3836-1.9551 1.391-2.3892 7e-3 -0.43407 3.5131-1.2967 7.7905-1.917 6.2931-0.91257 8.0104-0.9341 9-0.11283 1.7135 1.422 1.5237 2.265-0.57707 2.5634-1.1815 0.16779-1.8 0.80546-1.8 1.8556 0 2.0316 3.6809 2.6304 5.1664 0.84045 0.73106-0.88086 2.4934-1.2404 6.0794-1.2404 2.7775 0 5.9703-0.3499 7.0951-0.77756 2.0946-0.79638 4.459-0.36877 4.459 0.80643 0 0.36173-2.07 1.0574-4.6 1.5459-2.53 0.48851-5.5 1.1331-6.6 1.4325-1.7163 0.4671-1.5461 0.57922 1.2 0.79041 1.76 0.13536 5.18-0.34451 7.6-1.0664 2.42-0.72186 6.56-1.3895 9.2-1.4837 4.908-0.17508 24.055-3.2121 47.6-7.5501 16.804-3.096 33.275-5.8263 52-8.6195 14.431-2.1527 15.698-2.2086 50.8-2.2429 36.574-0.03567 43.77 0.3973 53.85 3.24 4.1101 1.1592 4.3235 1.362 6.4843 6.1617 1.2288 2.7297 3.5463 6.6762 5.15 8.77 3.3722 4.4029 3.4776 5.1555 1.3157 9.3931-2.0462 4.0108-2.0278 4.1201 0.6 3.5696l2.2-0.46089-2 1.2173c-2.5624 1.5596-4.3475 1.5832-5.6 0.074-1.2805-1.5429-5.1145-1.549-6.3916-0.0102-1.4717 1.7732-0.4792 3.3155 2.5228 3.9204 3.9248 0.79075 1.2473 2.1385-3.0722 1.5464-3.7124-0.50884-3.9507-0.18184-4.4431 6.0973-0.18517 2.3613-0.58396 2.8486-2.7975 3.4181-1.4198 0.3653-2.9628 1.3765-3.4287 2.2472-0.46596 0.87065-2.5443 2.4436-4.6185 3.4954s-4.419 2.6293-5.2106 3.5054c-1.3927 1.5413-1.3716 1.6928 0.64809 4.669 1.1481 1.6918 2.5037 3.3333 3.0125 3.6478 1.458 0.90111 2.7921-0.75238 2.3736-2.9418-0.31444-1.6448-0.0679-1.9949 1.4052-1.9949 1.4434 0 1.7061 0.34574 1.368 1.8-0.95486 4.1064-2.1675 10.901-2.7483 15.4-0.65324 5.0598-2.0734 6.4619-2.4309 2.4-0.46187-5.2474-1.0909-7.4729-2.6057-9.2195-0.87068-1.0039-1.583-2.4902-1.583-3.3029s-0.32149-1.4776-0.71441-1.4776c-0.98162 0-1.6856 2.0598-1.6856 4.9321 0 2.8169-1.8502 2.7649-2.2647-0.0637-0.36899-2.5182-8.5203-10.293-14.444-13.777-3.9787-2.34-6.0738-3.0086-10.718-3.4203-15.199-1.3474-27.637 4.9558-33.573 17.014-2.2399 4.5498-2.5985 6.1145-2.5896 11.298 0.0134 7.7549 2.3184 12.55 8.446 17.572 2.6936 2.2073 4.2727 4.0989 4.157 4.9795-0.15353 1.1688 0.2308 1.3366 2.1717 0.94844 2.9536-0.59072 7.134 0.20374 9.1677 1.7422 1.5372 1.1629 1.5372 1.1863 0 2.315-1.4978 1.0998-1.473 1.1708 0.69918 2 1.2386 0.47286 3.2186 0.87556 4.4 0.89487 1.9138 0.0313 1.8151 0.15381-0.90461 1.1238-1.6789 0.59877-4.4136 2.563-6.0771 4.3649s-3.4922 3.2762-4.0638 3.2762c-1.538 0-10.407 9.6102-10.407 11.277 0 0.78783-0.66182 1.9028-1.4707 2.4778-0.80888 0.57494-1.697 1.9608-1.9737 3.0798-0.33992 1.3749-1.5398 2.4919-3.7014 3.4456-3.2014 1.4124-9.6542 7.8988-9.6542 9.7044 0 0.60929 2.6991 1.2986 7.4 1.8899 4.07 0.51191 8.9962 1.4123 10.947 2.0009 3.4946 1.0543 3.394 1.0774-6.8 1.5586-17.705 0.83572-28.218 3.721-13.907 3.817 10.191 0.0683 7.5831 1.0115-10.875 3.9326-21.029 3.328-35.608 5.9451-60.365 10.836-41.248 8.1496-74.131 13.728-91.6 15.538-9.4287 0.97739-42.996 2.4883-51.6 2.3227-3.3-0.0635-10.68-0.40706-16.4-0.76339zm207.02-27.642c-0.54162-0.21913-1.6216-0.23247-2.4-0.0297-0.77837 0.20284-0.33522 0.38213 0.98478 0.39844 1.32 0.0163 1.9568-0.14965 1.4152-0.3688zm-56.494-4.6734c35.195-6.7339 66.836-32.465 73.904-60.1 1.9514-7.6298 2.1372-23.016 0.36868-30.517-3.955-16.775-17.456-29.85-35.994-34.858-19.941-5.3871-48.306-1.2871-65.21 9.4256-2.4144 1.5301-5.2898 3.2309-6.3898 3.7796-6.556 3.2702-20.51 16.702-26.357 25.371-8.173 12.117-11.473 22.73-11.474 36.898-3.5e-4 11.578 1.1326 16.958 4.8714 23.129 3.5265 5.821 11.194 14.561 15.528 17.701 11.508 8.3365 33.936 12.39 50.753 9.1718zm-2.6041-25.002c-0.94939-3.0724-1.8241-3.8075-5.1992-4.37-1.9349-0.32247-4.3213-0.78134-5.3033-1.0197-2.3571-0.57216-7.1999-4.8743-8.6555-7.6893-1.5303-2.9592-1.5114-9.0327 0.0321-10.314 0.8716-0.72337 15.797-4.8073 17.569-4.8073 0.12051 0 0.46422 2.3924 0.7638 5.3165 0.6356 6.2038 1.5511 8.2835 3.6463 8.2835 4.484 0 6.6293-9.8752 3.0299-13.947-0.99-1.12-5.4963-3.64-10.014-5.6002-10.348-4.4897-12.39-5.9595-14.492-10.432-4.6554-9.9039 0.0587-20.475 11.454-25.684 2.6566-1.2145 4.8882-3.0182 6.4791-5.237 1.3347-1.8615 3.4359-3.7209 4.6693-4.132 1.9454-0.64847 2.5828-0.41766 4.8113 1.7423 1.866 1.8086 3.3244 2.4901 5.3307 2.491 5.8167 2e-3 11.289 4.7966 12.432 10.892 0.87273 4.6521-0.79519 6.0848-9.5376 8.1923-4.2177 1.0168-8.043 1.6173-8.5006 1.3345-0.45764-0.28282-0.83205-1.6842-0.83205-3.1141s-0.51968-3.2987-1.1548-4.1528c-1.071-1.4402-1.317-1.464-3.3894-0.32816-1.229 0.67362-2.577 2.1984-2.9955 3.3884-0.63434 1.8037-0.43648 2.5116 1.1894 4.2554 2.2772 2.4424 8.8996 5.9098 15.15 7.9326 6.03 1.9514 8.348 3.7618 10.505 8.2044 2.385 4.9125 2.5336 13.495 0.31351 18.095-1.9001 3.9375-8.3618 10.43-12.463 12.522-1.7357 0.88547-4.0504 3.0271-5.1438 4.7591s-2.6896 3.5246-3.5471 3.9836c-2.4536 1.3131-5.6577 1.0183-6.1471-0.5656zm-107.43 2.1703c8.9392-3.0114 14.754-7.8641 18.177-15.17 2.4545-5.2382 3.1763-12.85 1.7138-18.074-1.4441-5.1579-6.7734-10.767-12.8-13.471-4.5825-2.0565-7.804-2.1724-4.4829-0.16129 4.9451 2.9945 6.5193 4.3342 6.7378 5.7343 0.13495 0.86453 1.1835 3.4878 2.33 5.8294 1.682 3.4352 2.1577 5.7748 2.463 12.113 0.34685 7.203 0.25174 7.8961-1.1445 8.3392-1.6821 0.53388-7.4828 5.8958-7.4828 6.9169 0 1.9626-17.39 3.9467-21.2 2.4189-1.0016-0.40163-2.4505-0.20896-3.8743 0.51521-2.4518 1.247-3.8136 0.80678-2.2723-0.73455 1.48-1.48 1.1227-2.0384-1.04-1.625-2.9937 0.57229-4.664-0.29584-3.7413-1.9446 0.57058-1.0196 0.20661-2.0709-1.4568-4.2081-6.1958-7.9604-5.1096-18.913 2.4711-24.917 4.2533-3.3687 10.236-5.5305 15.322-5.5367 3.8564-5e-3 4.3053-0.20517 5.6164-2.5084 0.78374-1.3768 1.247-2.6813 1.0295-2.8988-0.86131-0.86132-13.756-0.15563-17.605 0.96352-5.3102 1.5437-12.147 6.3582-15.202 10.705-2.0592 2.9298-2.4657 4.3354-2.722 9.4108-0.53806 10.655 0.13157 12.761 5.8478 18.394 5.7389 5.6548 10.378 8.6068 15.792 10.049 3.3127 0.8824 3.944 0.83997 5.263-0.35367 0.82432-0.746 2.3704-1.3454 3.4358-1.332 1.7012 0.0214 1.7666 0.1236 0.53701 0.83976-0.77 0.44848-1.4 1.1575-1.4 1.5757 0 1.2661 4.565 0.85642 9.6882-0.86947zm18.497-25.57c0-1.54 0.16464-2.17 0.36586-1.4s0.20122 2.03 0 2.8-0.36586 0.14-0.36586-1.4zm-27.736 8.0963c-1.4453-2.7948-3.3343-4.3857-4.4148-3.718-1.3953 0.86235-0.95369 2.0689 1.6463 4.4976 2.9374 2.7439 4.3804 2.3376 2.7685-0.77964zm6.2646-1.3618c0.80539-2.0988 0.56408-3.1486-1.1456-4.9837-2.2375-2.4017-3.1688-2.1954-3.1688 0.70174 0 4.4667 3.0731 7.5167 4.3144 4.282zm-8.1774-8.0586c0.80465-0.7282 1.463-2.3609 1.463-3.6282 0-2.1519-0.11894-2.2382-1.8-1.306-0.99 0.54896-2.0355 0.93314-2.3233 0.85372-0.2878-0.0794-0.96188 0.38411-1.498 1.03-0.5979 0.72043-0.65333 1.1744-0.1434 1.1744 0.45721 0 1.038-0.45 1.2906-1s0.25937-0.19323 0.01504 0.79284c-0.4351 1.7559 0.07048 3.4072 1.0432 3.4072 0.26938 0 1.1481-0.59579 1.9528-1.324zm7.863-3.5011c0-0.95773-2.2565-1.9851-2.9146-1.327-0.70057 0.70057 0.48772 2.1521 1.7618 2.1521 0.63403 0 1.1528-0.3713 1.1528-0.82511zm267.15-43.761c-0.95518-2.74-2.9451-3.9449-4.2884-2.5967-0.62216 0.62445-0.39174 1.2517 0.81779 2.2262 0.92621 0.74625 1.928 2.047 2.2262 2.8906 0.35422 1.002 0.81412 1.2619 1.3265 0.74949 0.51236-0.51236 0.48388-1.646-0.0821-3.2696zm-217.35-37.578c-0.99-0.19068-2.61-0.19068-3.6 0s-0.18 0.3467 1.8 0.3467 2.79-0.15601 1.8-0.3467zm253.4-1.374c0-1.5807-3.8966-6.0614-5.2711-6.0614-1.8344 0-1.2917 2.819 0.9802 5.0909 2.3085 2.3085 4.2909 2.7569 4.2909 0.97047zm-254.59-1.8614c0.18918-0.57626-0.35022-1-1.273-1-2.1941 0-4.1321 0.81435-4.1321 1.7363 0 1.1229 5.0192 0.43916 5.405-0.73628zm198.39 83.27c0.55-0.22192 1.45-0.22192 2 0 0.55 0.22193 0.1 0.40352-1 0.40352s-1.55-0.18159-1-0.40352zm12.913-5.9168c1.0523-0.87637 2.0936-1.4131 2.314-1.1927 0.68605 0.68606-1.5549 2.8407-2.9253 2.8127-1.0071-0.0206-0.86864-0.38755 0.61128-1.62zm-29.944-1.5675c-6.9618-0.98439-12.07-4.6905-14.866-10.786-2.7544-6.0045-1.5046-12.755 3.3912-18.317 5.0664-5.7557 15.957-9.5517 23.398-8.1557 3.3725 0.63268 10.364 5.9421 12.545 9.5266 1.5424 2.5349 1.5419 2.5519-0.11637 3.804-0.91612 0.69174-1.916 2.4917-2.222 4-0.47904 2.3614-0.91352 2.7771-3.1281 2.993-2.8832 0.28104-2.9448 0.37365-1.6388 2.4649 0.76216 1.2204 0.61568 1.8973-0.8 3.697-1.9078 2.4254-2.1735 4.4694-0.89212 6.8637 0.72668 1.3578 0.48227 1.7164-1.8 2.6407-3.5972 1.4568-9.029 1.9537-13.872 1.2689zm8.035-0.78591c1.5294 0 6.0888-4.0025 5.5509-4.8729-0.24715-0.3999-1.4869-0.72708-2.7549-0.72708-1.2681 0-2.5281-0.36-2.8-0.8-0.50858-0.82289 0.1395-1.0276 3.6-1.1368 1.8063-0.057 1.9907-0.37308 1.9039-3.2632-0.0962-3.2026-1.0218-5.9528-2.902-8.6228-1.0052-1.4274-0.60452-2.0324 2.1981-3.3183 1.1162-0.51217-5.1551-6.0589-6.8504-6.0589-0.76111 0-2.5218 1.2961-3.9127 2.8802-2.1026 2.3947-2.441 3.3049-2.0081 5.4 0.28643 1.3859 1.0208 2.9149 1.632 3.3978 0.90868 0.71796 0.74925 1.0429-0.8748 1.7828-2.7626 1.2587-2.4831 3.1626 0.98575 6.7151 2.8152 2.8831 2.9211 3.1776 2.0096 5.5924-1.0315 2.7327-0.11827 4.2327 2.0841 3.4233 0.58598-0.21539 1.5484-0.3916 2.1386-0.3916zm-2.3526-13.366c-0.43414-1.1402-0.34226-1.232 0.44784-0.44784 0.54674 0.54267 0.79254 1.1882 0.54622 1.4345-0.24631 0.24631-0.69364-0.19769-0.99406-0.98667zm-5.6084 8.6352c-0.62015-1.0034-2.8431-1.183-2.8431-0.2297 0 0.352 0.432 1.072 0.96 1.6 1.1184 1.1184 2.7068-0.0374 1.8831-1.3703zm17.997-22.09c2.0421-1.056 3.233-2.7795 1.9205-2.7795-1.1137 0-5.1603 2.5255-5.1603 3.2205 0 1.0527 0.47663 0.98777 3.2397-0.44108zm4.0953 18.692c0.14574-1.0292 0.80497-1.8712 1.465-1.8712 1.735 0 1.496 3.1211-0.26497 3.4602-1.136 0.21879-1.4055-0.13799-1.2-1.589zm5.2692-8.2712c0.21028-1.1 0.52035-2 0.68906-2s0.30674 0.9 0.30674 2-0.31008 2-0.68907 2c-0.37898 0-0.51701-0.9-0.30673-2zm-220.58-63.738c-1.6145-0.60626-1.7624-0.88185-0.8-1.4905 1.5781-0.99797 5.5808-0.97729 5.5808 0.02883 0 0.44-0.51 0.8-1.1333 0.8-0.62333 0-1.2533 0.31622-1.4 0.7027-0.15088 0.3976-1.1267 0.37976-2.2474-0.04108zm30.781-2.6803c-2.2-0.61088-4.36-1.1591-4.8-1.2182-0.44-0.05914 1.72-0.7868 4.8-1.617 5.5952-1.5082 16.4-2.1095 16.4-0.91271 0 0.98447-8.6208 4.9732-10.618 4.9127-0.98026-0.0297-3.5823-0.55381-5.7823-1.1647zm10.957-2.3813c-0.31485-1.0347-4.1521-0.72852-5.2847 0.42162-0.63552 0.64533-5e-3 0.8166 2.3282 0.63184 1.76-0.1394 3.0904-0.61346 2.9566-1.0535zm16.443 0.67018c0.55-0.22193 1.45-0.22193 2 0s0.1 0.40351-1 0.40351-1.55-0.18158-1-0.40351zm10.015-1.6246c0.77838-0.20284 1.8584-0.1895 2.4 0.02964 0.54163 0.21914-0.0952 0.38509-1.4152 0.36879s-1.7632-0.1956-0.98478-0.39843zm-17.215-1.5754c0.55-0.22193 1.45-0.22193 2 0s0.1 0.40351-1 0.40351-1.55-0.18158-1-0.40351zm7.2 0c0.55-0.22193 1.45-0.22193 2 0s0.1 0.40351-1 0.40351-1.55-0.18158-1-0.40351zm14.871-2.3648c2.3346-1.2652 3.4935-1.0656 2.5622 0.44141-0.29003 0.46927-1.4961 0.83881-2.6801 0.82119l-2.1528-0.03203zm-15.93-0.20984c0.55673-0.90083 4.459-1.6691 4.459-0.87789 0 0.32767-0.81 0.81283-1.8 1.0781-2.4997 0.66989-3.1658 0.61973-2.659-0.20025z" fill="#81e37e"/>
  <path d="m57.449 263.92c-5.72-0.38691-13.434-1.241-17.141-1.8981s-7.0378-1.0114-7.4-0.78758c-0.36224 0.22388-0.65862 0.0258-0.65862-0.44016 0-0.46597-0.49145-0.84722-1.0921-0.84722-2.3526 0-4.9862-3.1252-6.0144-7.137-0.65876-2.5703-1.6583-4.4161-2.6906-4.9686-0.90338-0.48347-2.9386-2.1875-4.5227-3.7868-1.5841-1.5992-3.8701-3.6277-5.08-4.5077l-2.1998-1.6 1.0601-130h3.6841c4.6129 0 9.3094-2.9764 10.971-6.9527l1.1677-2.7947 4.8914 0.56771c2.6903 0.31224 5.989 0.88249 7.3305 1.2672 6.1966 1.7772 25.066 2.4967 52.495 2.0018 15.62-0.28183 30.378-0.77721 32.795-1.1008 4.2804-0.57308 4.4635-0.70337 7.009-4.9884 1.4376-2.42 3.2337-5.12 3.9914-6 0.75769-0.88 1.3836-1.9551 1.391-2.3892 7e-3 -0.43407 3.5131-1.2967 7.7905-1.917 6.2931-0.91257 8.0104-0.9341 9-0.11283 1.7135 1.422 1.5237 2.265-0.57707 2.5634-1.1815 0.16779-1.8 0.80546-1.8 1.8556 0 2.0316 3.6809 2.6304 5.1664 0.84045 0.73106-0.88086 2.4934-1.2404 6.0794-1.2404 2.7775 0 5.9703-0.3499 7.0951-0.77756 2.0946-0.79638 4.459-0.36877 4.459 0.80643 0 0.36173-2.07 1.0574-4.6 1.5459-2.53 0.48851-5.5 1.1331-6.6 1.4325-1.7163 0.4671-1.5461 0.57922 1.2 0.79041 1.76 0.13536 5.18-0.34451 7.6-1.0664 2.42-0.72186 6.56-1.3898 9.2-1.4842 5.2387-0.18742 25.249-3.3934 55.2-8.8439 32.825-5.9735 75.6-11.327 75.6-9.4617 0 0.97154-33.186 57.058-33.761 57.058-0.329 0-1.1218-1.0126-1.7618-2.2501-4.9546-9.5811-19.412-18.964-34.301-22.261-7.0858-1.5692-24.453-1.7612-31.777-0.35122-11.897 2.2903-26.846 8.1698-33.555 13.198-1.5155 1.1356-3.0844 2.0648-3.4866 2.0648-1.3181 0-10.442 7.72-16.216 13.72-9.6801 10.06-16.493 21.811-19.264 33.225-1.6533 6.8103-1.6889 23.588-0.0628 29.599 2.5089 9.2744 14.017 23.412 22.921 28.158 15.173 8.0869 33.754 10.304 51.115 6.0976 4.538-1.0994 8.3796-1.999 8.5368-1.999 0.88928 0-11.18 19.212-12.271 19.533-1.6183 0.477-15.273 3.0896-29.717 5.6855-5.94 1.0676-12.6 2.3004-14.8 2.7395-9.471 1.8902-38.557 5.6326-49.6 6.382-18.083 1.227-45.114 1.6233-56.8 0.83289zm40.488-55.203c8.9392-3.0114 14.754-7.8641 18.177-15.17 2.4545-5.2382 3.1763-12.85 1.7138-18.074-1.4441-5.1579-6.7734-10.767-12.8-13.471-4.5825-2.0565-7.804-2.1724-4.4829-0.16129 4.9451 2.9945 6.5193 4.3342 6.7378 5.7343 0.13495 0.86453 1.1835 3.4878 2.33 5.8294 1.682 3.4352 2.1577 5.7748 2.463 12.113 0.34685 7.203 0.25174 7.8961-1.1445 8.3392-1.6821 0.53388-7.4828 5.8958-7.4828 6.9169 0 1.9626-17.39 3.9467-21.2 2.4189-1.0016-0.40163-2.4505-0.20896-3.8743 0.51521-2.4518 1.247-3.8136 0.80678-2.2723-0.73455 1.48-1.48 1.1227-2.0384-1.04-1.625-2.9937 0.57229-4.664-0.29584-3.7413-1.9446 0.57058-1.0196 0.20661-2.0709-1.4568-4.2081-6.1958-7.9604-5.1096-18.913 2.4711-24.917 4.2533-3.3687 10.236-5.5305 15.322-5.5367 3.8564-5e-3 4.3053-0.20517 5.6164-2.5084 0.78374-1.3768 1.247-2.6813 1.0295-2.8988-0.86131-0.86132-13.756-0.15563-17.605 0.96352-5.3102 1.5437-12.147 6.3582-15.202 10.705-2.0592 2.9298-2.4657 4.3354-2.722 9.4108-0.53806 10.655 0.13157 12.761 5.8478 18.394 5.7389 5.6548 10.378 8.6068 15.792 10.049 3.3127 0.8824 3.944 0.83997 5.263-0.35367 0.82432-0.746 2.3704-1.3454 3.4358-1.332 1.7012 0.0214 1.7666 0.1236 0.53701 0.83976-0.77 0.44848-1.4 1.1575-1.4 1.5757 0 1.2661 4.565 0.85642 9.6882-0.86947zm18.497-25.57c0-1.54 0.16464-2.17 0.36586-1.4s0.20122 2.03 0 2.8-0.36586 0.14-0.36586-1.4zm-27.736 8.0963c-1.4453-2.7948-3.3343-4.3857-4.4148-3.718-1.3953 0.86235-0.95369 2.0689 1.6463 4.4976 2.9374 2.7439 4.3804 2.3376 2.7685-0.77964zm6.2646-1.3618c0.80539-2.0988 0.56408-3.1486-1.1456-4.9837-2.2375-2.4017-3.1688-2.1954-3.1688 0.70174 0 4.4667 3.0731 7.5167 4.3144 4.282zm-8.1774-8.0586c0.80465-0.7282 1.463-2.3609 1.463-3.6282 0-2.1519-0.11894-2.2382-1.8-1.306-0.99 0.54896-2.0355 0.93314-2.3233 0.85372-0.2878-0.0794-0.96188 0.38411-1.498 1.03-0.5979 0.72043-0.65333 1.1744-0.1434 1.1744 0.45721 0 1.038-0.45 1.2906-1s0.25937-0.19323 0.01504 0.79284c-0.4351 1.7559 0.07048 3.4072 1.0432 3.4072 0.26938 0 1.1481-0.59579 1.9528-1.324zm7.863-3.5011c0-0.95773-2.2565-1.9851-2.9146-1.327-0.70057 0.70057 0.48772 2.1521 1.7618 2.1521 0.63403 0 1.1528-0.3713 1.1528-0.82511zm49.8-81.339c-0.99-0.19068-2.61-0.19068-3.6 0s-0.18 0.3467 1.8 0.3467 2.79-0.15601 1.8-0.3467zm-1.195-3.2354c0.18918-0.57626-0.35022-1-1.273-1-2.1941 0-4.1321 0.81435-4.1321 1.7363 0 1.1229 5.0192 0.43916 5.405-0.73628zm62.112 112.8c-0.97457-3.1539-1.8893-3.8032-6.7411-4.7852-5.9096-1.1961-7.8586-2.3186-10.862-6.256-2.5743-3.3751-3.6453-10.59-1.7994-12.122 0.91701-0.76102 7.3096-2.5773 15.97-4.5375 2.0557-0.4653 2.0915-0.39608 2.5421 4.9145 0.58698 6.9179 1.118 8.1864 3.4272 8.1864 3.2733 0 5.1456-2.9151 5.1456-8.0114 0-3.6548-0.34125-4.8224-1.8-6.1589-2.1542-1.9737-6.8898-4.4123-13.029-6.7091-17.575-6.5756-17.686-26.626-0.19199-34.731 4.325-2.0038 7.0206-4.1501 7.0206-5.59 0-1.2719 2.3551-3.2749 4.6881-3.9872 1.4868-0.45398 2.3444-0.0769 4.0353 1.7744 1.6877 1.8478 3.0789 2.4613 6.5006 2.8665 5.3063 0.62846 7.8173 2.3465 10.176 6.9626 2.0402 3.9927 2.2551 6.2554 0.78525 8.2656-1.0821 1.4799-15.444 5.6202-17.182 4.9533-0.55184-0.21176-1.0034-1.5-1.0034-2.8627 0-3.2339-1.2962-5.5725-3.0887-5.5725-1.8966 0-4.9113 3.2794-4.9113 5.3425 0 3.4593 6.7553 7.9205 16.8 11.095 7.9361 2.5077 12.114 8.1801 12.288 16.682 0.14681 7.1794-1.8176 11.502-7.7031 16.951-2.7016 2.5012-6.0502 5.0232-7.4412 5.6044-1.5411 0.64391-3.0493 2.1528-3.8605 3.8623-0.73224 1.543-2.1206 3.3584-3.0854 4.0341-2.4148 1.6914-6.1347 1.5959-6.6808-0.17143zm-73.898-117.94c-1.6145-0.60626-1.7624-0.88185-0.8-1.4905 1.5781-0.99797 5.5808-0.97729 5.5808 0.02883 0 0.44-0.51 0.8-1.1333 0.8-0.62333 0-1.2533 0.31622-1.4 0.7027-0.15088 0.3976-1.1267 0.37976-2.2474-0.04108zm30.781-2.6803c-2.2-0.61088-4.36-1.1591-4.8-1.2182-0.44-0.05914 1.72-0.7868 4.8-1.617 5.5952-1.5082 16.4-2.1095 16.4-0.91271 0 0.98447-8.6208 4.9732-10.618 4.9127-0.98026-0.0297-3.5823-0.55381-5.7823-1.1647zm10.957-2.3813c-0.31485-1.0347-4.1521-0.72852-5.2847 0.42162-0.63552 0.64533-5e-3 0.8166 2.3282 0.63184 1.76-0.1394 3.0904-0.61346 2.9566-1.0535zm16.443 0.67018c0.55-0.22193 1.45-0.22193 2 0s0.1 0.40351-1 0.40351-1.55-0.18158-1-0.40351zm10.015-1.6246c0.77838-0.20284 1.8584-0.1895 2.4 0.02964 0.54163 0.21914-0.0952 0.38509-1.4152 0.36879s-1.7632-0.1956-0.98478-0.39843zm-17.215-1.5754c0.55-0.22193 1.45-0.22193 2 0s0.1 0.40351-1 0.40351-1.55-0.18158-1-0.40351zm7.2 0c0.55-0.22193 1.45-0.22193 2 0s0.1 0.40351-1 0.40351-1.55-0.18158-1-0.40351zm14.871-2.3648c2.3346-1.2652 3.4935-1.0656 2.5622 0.44141-0.29003 0.46927-1.4961 0.83881-2.6801 0.82119l-2.1528-0.03203zm-15.93-0.20984c0.55673-0.90083 4.459-1.6691 4.459-0.87789 0 0.32767-0.81 0.81283-1.8 1.0781-2.4997 0.66989-3.1658 0.61973-2.659-0.20025z" fill="#6be28e"/>
  <path d="m49.849 263.06c-8.0058-0.85524-18.718-3.4168-21.263-5.0844-0.98864-0.64778-2.0522-2.36-2.3634-3.8049-0.82168-3.8147-2.6389-7.0271-3.9753-7.0271-0.63856 0-1.7641-0.92038-2.5011-2.0453s-2.9054-3.1222-4.8184-4.4384l-3.4783-2.3932v-35.654l58.106-99.069 21.947-0.48675c12.071-0.26771 24.827-0.75131 28.347-1.0746 11.232-1.0317 46.674-6.8106 74-12.066 34.297-6.5956 60.553-11.165 80-13.923 20.792-2.9489 38.4-4.5575 38.4-3.5079 0 0.97154-33.186 57.058-33.761 57.058-0.329 0-1.1218-1.0126-1.7618-2.2501-2.0334-3.9322-8.2577-10.219-13.498-13.633-19.026-12.396-45.847-13.578-72.739-3.2072-3.4215 1.3195-8.2952 3.7456-10.831 5.3914-2.5353 1.6458-6.0497 3.9078-7.8097 5.0268-5.8687 3.7312-14.061 11.29-19.31 17.816-5.9699 7.4229-9.488 13.391-13.238 22.456-2.6234 6.3426-2.647 6.5148-2.6276 19.2 0.0148 9.6696 0.34888 13.88 1.3661 17.216 1.59 5.2142 8.7952 15.347 15.148 21.303 12.96 12.151 37.429 17.085 58.912 11.88 4.538-1.0994 8.3796-1.999 8.5368-1.999 0.88928 0-11.18 19.212-12.271 19.533-1.6183 0.477-15.273 3.0896-29.717 5.6855-5.94 1.0676-12.6 2.3004-14.8 2.7395-8.8359 1.7635-38.202 5.6304-47.6 6.2679-13.628 0.92437-58.027 0.98481-66.4 0.0904zm45.045-53.11c13.238-3.4482 21.344-11.296 23.722-22.965 1.7507-8.5922-0.82441-16.226-7.3607-21.821-5.7979-4.9628-10.695-6.346-22.607-6.3856-10.007-0.0333-10.597 0.059-15.6 2.4411-5.4426 2.5911-11.224 7.7176-13.393 11.877-1.6202 3.1058-2.2572 13.432-1.094 17.736 1.7459 6.4594 11.164 14.687 20.989 18.335 6.0207 2.2357 9.1541 2.3957 15.344 0.7834zm-16.68-9.0465c-7.8468-3.791-11.566-9.375-11.566-17.366 0-7.7324 3.6633-12.612 12.356-16.457 4.6974-2.0779 14.951-2.2755 20.292-0.39115 8.0137 2.8274 10.648 5.7614 12.05 13.421 1.1301 6.1731-0.39467 11.304-4.6678 15.707-4.9312 5.0813-8.9063 6.7624-16.83 7.1173-6.211 0.27822-7.2188 0.10229-11.634-2.031zm15.314-9.2802c1.496-1.496 2.72-3.1314 2.72-3.6343 0-0.50285-1.62-2.6462-3.6-4.763-3.926-4.1972-4.5154-5.4289-1.9375-4.0493 1.95 1.0436 3.9375 0.4888 3.9375-1.0992 0-1.3586-3.8496-5.3342-5.1651-5.3342-1.5417 0-7.6349 5.6123-7.6349 7.0323 0 0.71918 0.99 2.1311 2.2 3.1377l2.2 1.83-2.2 1.83c-1.21 1.0065-2.1908 2.1765-2.1795 2.6 0.0308 1.1561 5.7633 5.1064 7.4595 5.1403 0.814 0.0163 2.704-1.1944 4.2-2.6904zm111.84 14.92c-0.97457-3.1539-1.8893-3.8032-6.7411-4.7852-5.9096-1.1961-7.8586-2.3186-10.862-6.256-2.5743-3.3751-3.6453-10.59-1.7994-12.122 0.91701-0.76102 7.3096-2.5773 15.97-4.5375 2.0557-0.4653 2.0915-0.39608 2.5421 4.9145 0.58698 6.9179 1.118 8.1864 3.4272 8.1864 3.2733 0 5.1456-2.9151 5.1456-8.0114 0-3.6548-0.34125-4.8224-1.8-6.1589-2.1542-1.9737-6.8898-4.4123-13.029-6.7091-5.5107-2.0618-9.7453-5.6562-11.679-9.9137-1.6298-3.5875-1.9278-9.5565-0.6455-12.929 1.596-4.1979 6.2484-8.9003 11.306-11.428 5.4118-2.7043 7.8476-4.5822 7.8476-6.0501 0-1.2719 2.3551-3.2749 4.6881-3.9872 1.4868-0.45398 2.3444-0.0769 4.0353 1.7744 1.6877 1.8478 3.0789 2.4613 6.5006 2.8665 5.3063 0.62846 7.8173 2.3465 10.176 6.9626 2.0402 3.9927 2.2551 6.2554 0.78525 8.2656-1.0821 1.4799-15.444 5.6202-17.182 4.9533-0.55184-0.21176-1.0034-1.5-1.0034-2.8627 0-3.2339-1.2962-5.5725-3.0887-5.5725-1.8966 0-4.9113 3.2794-4.9113 5.3425 0 3.4593 6.7553 7.9205 16.8 11.095 7.9361 2.5077 12.114 8.1801 12.288 16.682 0.14681 7.1794-1.8176 11.502-7.7031 16.951-2.7016 2.5012-6.0502 5.0232-7.4412 5.6044-1.5411 0.64391-3.0493 2.1528-3.8605 3.8623-0.73224 1.543-2.1206 3.3584-3.0854 4.0341-2.4148 1.6914-6.1347 1.5959-6.6808-0.17143zm-73.702-119.15c0.77838-0.20283 1.8584-0.1895 2.4 0.02964 0.54163 0.21914-0.0952 0.3851-1.4152 0.36879-1.32-0.0163-1.7632-0.1956-0.98478-0.39843z" fill="#77e17c"/>
  <path d="m49.849 263.09c-8.0694-0.8952-18.744-3.4618-21.263-5.1124-0.98864-0.64778-2.0522-2.36-2.3634-3.8049-0.82168-3.8147-2.6389-7.0271-3.9753-7.0271-0.63856 0-1.7641-0.92038-2.5011-2.0453s-2.9054-3.1222-4.8184-4.4384l-3.4783-2.3932v-35.654l58.106-99.069 21.947-0.48675c12.071-0.26771 24.827-0.75131 28.347-1.0746 11.129-1.0223 45.743-6.6583 74-12.049 5.94-1.1332 13.86-2.5968 17.6-3.2525s12.56-2.2498 19.6-3.5425c25.063-4.6019 43.287-7.352 49.2-7.4245 3.7864-0.04646 6.39-0.46033 7.0571-1.1218 1.2721-1.2613 14.945-1.4639 18.091-0.26803 3.6584 1.3909 1.6923 4.8198-2.7637 4.8198-0.94653 0-4.2241 1.2331-7.2834 2.7403-4.212 2.075-5.1332 2.8034-3.7943 3 0.9725 0.14282 1.9242 0.73309 2.1148 1.3117 0.25927 0.78682-0.32993 0.934-2.3373 0.58386-3.8251-0.66719-6.6669 1.0151-6.75 3.9958-0.1122 4.0263-0.22944 4.2208-4.134 6.8589-5.013 3.3869-12.2 9.4582-12.2 10.306 0 0.37005 1.62 2.5707 3.6 4.8903 3.8338 4.4914 4.46 6.6119 2.2077 7.4762-0.99863 0.3832-2.0384-0.27119-3.6776-2.3144-1.2569-1.5668-2.6644-2.8487-3.1276-2.8487-0.46329 0-3.266-1.3973-6.2281-3.1051-9.5945-5.5316-22.734-8.9-34.679-8.8902-15.677 0.013-37.033 5.9961-47.893 13.418-1.871 1.2785-4.8418 3.228-6.6018 4.3322-9.283 5.8239-21.449 18.814-27.201 29.045-5.6008 9.9608-7.7743 16.847-8.2084 26.005-0.5125 10.813 0.81446 20.747 3.5078 26.26 1.1461 2.346 4.2527 6.9618 6.9037 10.257 4.143 5.15 6.976 7.6468 16.998 14.981l1.6 1.1708-1.6 1.2058c-1.4392 1.0846-1.4656 1.2579-0.26251 1.7245 0.73561 0.28531 2.062 0.13102 2.9474-0.34286 3.2231-1.7249 4.7408-0.12028 1.9151 2.0248-1.2648 0.96014-1.1707 1.0652 0.97496 1.0882l2.375 0.0254-4.484 4.6c-2.4662 2.53-4.8718 5.3619-5.3459 6.2931-0.55252 1.0854-1.9492 1.8749-3.891 2.1995-4.2704 0.71392-5.1866 1.5156-5.7414 5.0241-0.42569 2.6918-0.9619 3.3187-4.2224 4.9368-4.3186 2.1432-12.349 3.678-25.893 4.949-12.584 1.1809-63.692 1.7048-72.372 0.7419zm110.25-36.004c-0.15766-0.473-0.62866-0.86-1.0467-0.86s-0.889 0.387-1.0467 0.86 0.31333 0.86 1.0467 0.86c0.73333 0 1.2043-0.387 1.0467-0.86zm-65.201-17.133c13.238-3.4482 21.344-11.296 23.722-22.965 1.7507-8.5922-0.82441-16.226-7.3607-21.821-5.7979-4.9628-10.695-6.346-22.607-6.3856-10.007-0.0333-10.597 0.059-15.6 2.4411-5.4426 2.5911-11.224 7.7176-13.393 11.877-1.6202 3.1058-2.2572 13.432-1.094 17.736 1.7459 6.4594 11.164 14.687 20.989 18.335 6.0207 2.2357 9.1541 2.3957 15.344 0.7834zm-16.68-9.0465c-7.8468-3.791-11.566-9.375-11.566-17.366 0-7.7324 3.6633-12.612 12.356-16.457 4.6974-2.0779 14.951-2.2755 20.292-0.39115 8.0137 2.8274 10.648 5.7614 12.05 13.421 1.1301 6.1731-0.39467 11.304-4.6678 15.707-4.9312 5.0813-8.9063 6.7624-16.83 7.1173-6.211 0.27822-7.2188 0.10229-11.634-2.031zm15.314-9.2802c1.496-1.496 2.72-3.1314 2.72-3.6343 0-0.50285-1.62-2.6462-3.6-4.763-3.926-4.1972-4.5154-5.4289-1.9375-4.0493 1.95 1.0436 3.9375 0.4888 3.9375-1.0992 0-1.3586-3.8496-5.3342-5.1651-5.3342-1.5417 0-7.6349 5.6123-7.6349 7.0323 0 0.71918 0.99 2.1311 2.2 3.1377l2.2 1.83-2.2 1.83c-1.21 1.0065-2.1908 2.1765-2.1795 2.6 0.0308 1.1561 5.7633 5.1064 7.4595 5.1403 0.814 0.0163 2.704-1.1944 4.2-2.6904zm172.74-80.515c0.72282-1.1695-1.1179-3.165-2.9196-3.165-1.8499 0-1.8948 0.64006-0.17806 2.537 1.5038 1.6617 2.3525 1.8337 3.0977 0.62795zm4.1617-31.648c-0.26583-0.26583-0.95584-0.29426-1.5333-0.06316-0.63819 0.25538-0.44863 0.44495 0.48333 0.48333 0.84333 0.03474 1.3158-0.15434 1.05-0.42018zm23.072-1.2061c0.58016-0.93872-0.96671-2.2776-2.6553-2.2983-2.2346-0.02738-0.80185 2.8556 1.5528 3.1246 0.30403 0.03474 0.80016-0.33709 1.1025-0.82628zm-135.26 178.49c0.27193-0.44 1.0132-0.8 1.6472-0.8 0.63404 0 1.1528 0.36 1.1528 0.8s-0.74125 0.8-1.6472 0.8-1.4247-0.36-1.1528-0.8zm8.988-1.7924c3.6758-1.4311 3.2766-2.5208-1.1574-3.1588-2.1068-0.3032-4.8788-0.75583-6.1599-1.0059-2.2487-0.43886-2.2815-0.40177-0.94789 1.0718 1.9749 2.1822-8e-4 3.1625-2.1147 1.049-2.1667-2.1667-1.3382-4.1637 1.7274-4.1637 3.4091 0 10.469 1.5924 13.164 2.9693 2.0348 1.0395 2.1626 1.3116 1.1101 2.3641-0.65416 0.65416-2.7689 1.3452-4.6995 1.5356l-3.5101 0.34624zm5.2272-6.762c0.77838-0.20283 1.8584-0.18949 2.4 0.0297 0.54163 0.21915-0.0952 0.3851-1.4152 0.3688s-1.7632-0.1956-0.98478-0.39844zm6.5848-14.646c0.27193-0.44 0.99193-0.8 1.6-0.8 0.60806 0 1.3281 0.36 1.6 0.8 0.28153 0.45552-0.40743 0.8-1.6 0.8s-1.8815-0.34448-1.6-0.8zm31.6-30.268c0-1.4847 0.96537-3.3321 1.7412-3.3321 1.1124 0 0.44743 3.4125-0.74123 3.804-0.55 0.18113-1-0.0312-1-0.47191zm-12.4-1.6812c-1.76-0.30185-4.3672-1.1646-5.7937-1.9172-3.382-1.7842-7.3888-8.7021-7.3988-12.775-7e-3 -2.7541 0.27213-3.1576 2.9583-4.28 1.6312-0.68154 4.2188-1.2392 5.7502-1.2392s3.566-0.51211 4.5213-1.138c1.5151-0.99275 1.8669-0.98128 2.7559 0.0899 0.75877 0.91426 1.2899 1.0031 2.0794 0.34786 0.8634-0.71656 1.1038 0.35903 1.2939 5.7901l0.23349 6.6702 4.4 0.41693c4.4146 0.41833 9.1698 2.7376 8.3459 4.0706-0.72023 1.1654-2.3947 0.81906-4.6616-0.96407-2.6169-2.0584-4.2858-1.5428-4.6267 1.4293-0.2449 2.1357-0.43427 2.2338-3.8151 1.9756-3.175-0.24241-3.4439-0.13492-2.502 1 0.58044 0.69938 0.74126 1.2265 0.35738 1.1715-0.38387-0.055-2.138-0.3471-3.898-0.64895zm0.47333-6.4682c3.0066-0.70977 2.8082-2.3827-0.28268-2.3827-3.7152 0-5.9062 2.3418-4.5544 4.8677l0.96376 1.8008 1.0326-1.9295c0.56795-1.0612 1.8462-2.1216 2.8407-2.3563zm3.7307-7.3827c-0.18114-0.55-1.1839-1.1246-2.2284-1.2768-1.658-0.2417-1.7646-0.11478-0.83938 1 1.2529 1.5096 3.5418 1.7162 3.0678 0.27683zm11.419 3.0283c-0.53482-0.64443-0.89056-2.7144-0.79052-4.6s0.13355-4.2858 0.0745-5.3339c-0.17071-3.0278-5.1363-7.0538-10.893-8.8318-10.119-3.1255-14.712-6.6829-16.379-12.687-2.6699-9.6135 2.0238-17.935 13.1-23.226 3.9645-1.8937 5.2504-2.958 5.9303-4.9082 0.56563-1.6226 1.7708-2.8698 3.4592-3.5797 3.0748-1.2929 4.0432-1.0353 5.0918 1.3543 0.62775 1.4306 1.829 1.9563 6.0554 2.6498 5.7623 0.94558 8.1768 2.262 10.438 5.6908 1.8565 2.8156 1.9653 8.4546 0.19731 10.223-2.0579 2.0579-3.1072 0.98378-3.1072-3.1809 0-2.364-0.38581-3.9805-1-4.19-0.67362-0.22972-1 0.56665-1 2.44 0 1.7341-0.45177 2.9544-1.2 3.2416-0.66 0.25327-1.2 1.2007-1.2 2.1054 0 1.9624-3.1772 3.3944-6.755 3.0444-2.3098-0.22591-2.4585-0.44932-2.6888-4.0391-0.22846-3.5604-0.3836-3.8-2.4606-3.8-2.6578 0-5.6956 2.9498-5.6956 5.5306 0 2.8138 4.1435 6.0556 11.817 9.2452 14.632 6.0822 18.692 11.68 16.483 22.724-0.92324 4.6162-1.9 2.5571-1.9-4.0053v-6.5053l-3.4947-3.4947c-3.8364-3.8364-6.1567-4.7379-4.0948-1.591 0.68608 1.0471 1.6154 4.1888 2.0652 6.9817 0.44978 2.7928 1.1952 5.3112 1.6566 5.5963 0.78138 0.48292 0.50913 3.3229-0.72072 7.5183-0.42057 1.4347-0.56819 1.3604-1.4289-0.71891l-0.95991-2.3189-0.57052 3.1189c-0.92149 5.0375-2.4162 6.7189-5.9727 6.7189-1.7319 0-3.5099-0.51361-4.056-1.1717zm6.7194-2.4855c1.1384-1.1384 1.8879-8.3428 0.86788-8.3428-0.21409 0-0.91572 1.26-1.5592 2.8-0.64346 1.54-1.7396 2.8-2.4358 2.8-1.7033 0-2.5292 2.384-1.1323 3.2685 1.6386 1.0375 2.8452 0.88864 4.2594-0.52564zm-1.1428-25.555c0-0.71856-5.1495-3.5832-6.4-3.5603-0.66 0.0121 0.24 0.90889 2 1.9929 3.1435 1.9361 4.4 2.3837 4.4 1.5674zm57.8-36.012c-1.7225-1.2126-2.535-4.3765-1.124-4.3765 1.2298 0 3.469 3.0582 3.1941 4.3623-0.2468 1.1708-0.42552 1.172-2.0701 0.0142zm3.3569-10.846c-0.82442-1.3339 1.0298-2.8636 2.1334-1.76 0.92314 0.92314 0.34538 2.6297-0.89029 2.6297-0.38807 0-0.94745-0.39137-1.2431-0.86971zm-7.2319-4.8516c-1.3244-2.1429 3.8631-3.7568 8.275-2.5744 2.7347 0.73286 2.1502 1.8958-0.95279 1.8958-1.514 0-2.9753 0.36-3.2472 0.8-0.67469 1.0917-3.375 1.0112-4.075-0.12136zm-141.71-23.633c0.77838-0.20283 1.8584-0.1895 2.4 0.02964 0.54163 0.21914-0.0952 0.3851-1.4152 0.36879-1.32-0.0163-1.7632-0.1956-0.98478-0.39843z" fill="#5ede85"/>
  <path d="m58.049 263.44c-0.99-0.22323-1.8-0.61849-1.8-0.87836s6.7162-11.935 14.925-25.944c14.474-24.702 15-25.472 17.4-25.481 3.6619-0.0141 10.402-1.9798 15.119-4.4095 14.339-7.3856 19.803-24.025 12.094-36.828l-2.7649-4.5916 39.627-67.661 7.2-1.2955c3.96-0.71253 16.56-3.057 28-5.2098 59.855-11.264 84.177-15.324 92.4-15.425 3.7864-0.04646 6.39-0.46033 7.0571-1.1218 1.2721-1.2613 14.945-1.4639 18.091-0.26803 3.6584 1.3909 1.6923 4.8198-2.7637 4.8198-0.94653 0-4.2241 1.2331-7.2834 2.7403-4.212 2.075-5.1332 2.8034-3.7943 3 0.9725 0.14282 1.9242 0.73309 2.1148 1.3117 0.25927 0.78682-0.32993 0.934-2.3373 0.58386-3.8251-0.66719-6.6669 1.0151-6.75 3.9958-0.1122 4.0263-0.22944 4.2208-4.134 6.8589-5.013 3.3869-12.2 9.4582-12.2 10.306 0 0.37005 1.62 2.5707 3.6 4.8903 3.8338 4.4914 4.46 6.6119 2.2077 7.4762-0.99863 0.3832-2.0384-0.27119-3.6776-2.3144-1.2569-1.5668-2.6644-2.8487-3.1276-2.8487-0.46329 0-3.266-1.3973-6.2281-3.1051-41.735-24.062-106.37 3.3556-122.72 52.057-1.7085 5.0896-2.0567 7.5993-2.0517 14.789 0.0115 16.541 2.0276 22.931 10.596 33.582 4.143 5.15 6.976 7.6468 16.998 14.981l1.6 1.1708-1.6 1.2058c-1.4392 1.0846-1.4656 1.2579-0.26251 1.7245 0.73561 0.28531 2.062 0.13102 2.9474-0.34286 3.2231-1.7249 4.7408-0.12028 1.9151 2.0248-1.2648 0.96014-1.1707 1.0652 0.97496 1.0882l2.375 0.0254-4.484 4.6c-2.4662 2.53-4.8718 5.3619-5.3459 6.2931-0.55252 1.0854-1.9492 1.8749-3.891 2.1995-4.2704 0.71392-5.1866 1.5156-5.7414 5.0241-0.42569 2.6918-0.9619 3.3187-4.2224 4.9368-7.9192 3.93-25.686 5.6898-61.865 6.1275-14.52 0.17569-27.21 0.1368-28.2-0.0864zm102.05-36.355c-0.15766-0.473-0.62866-0.86-1.0467-0.86s-0.889 0.387-1.0467 0.86 0.31333 0.86 1.0467 0.86c0.73333 0 1.2043-0.387 1.0467-0.86zm106.17-115.98c0.72282-1.1695-1.1179-3.165-2.9196-3.165-1.8499 0-1.8948 0.64006-0.17806 2.537 1.5038 1.6617 2.3525 1.8337 3.0977 0.62795zm4.1617-31.648c-0.26583-0.26583-0.95584-0.29426-1.5333-0.06316-0.63819 0.25538-0.44863 0.44495 0.48333 0.48333 0.84333 0.03474 1.3158-0.15434 1.05-0.42018zm23.072-1.2061c0.58016-0.93872-0.96671-2.2776-2.6553-2.2983-2.2346-0.02738-0.80185 2.8556 1.5528 3.1246 0.30403 0.03474 0.80016-0.33709 1.1025-0.82628zm-241.04 184.29c0.17164-0.33 7.0733-12.183 15.337-26.34 9.9753-17.089 15.377-25.605 16.072-25.339 0.73882 0.28351-0.42351 2.9162-3.9472 8.9404-21.429 36.636-25.543 43.339-26.597 43.339-0.6474 0-1.0367-0.27-0.86503-0.6zm105.78-5.8c0.27193-0.44 1.0132-0.8 1.6472-0.8 0.63404 0 1.1528 0.36 1.1528 0.8s-0.74125 0.8-1.6472 0.8-1.4247-0.36-1.1528-0.8zm8.988-1.7924c3.6758-1.4311 3.2766-2.5208-1.1574-3.1588-2.1068-0.3032-4.8788-0.75583-6.1599-1.0059-2.2487-0.43886-2.2815-0.40177-0.94789 1.0718 1.9749 2.1822-8e-4 3.1625-2.1147 1.049-2.1667-2.1667-1.3382-4.1637 1.7274-4.1637 3.4091 0 10.469 1.5924 13.164 2.9693 2.0348 1.0395 2.1626 1.3116 1.1101 2.3641-0.65416 0.65416-2.7689 1.3452-4.6995 1.5356l-3.5101 0.34624zm5.2272-6.762c0.77838-0.20283 1.8584-0.18949 2.4 0.0297 0.54163 0.21915-0.0952 0.3851-1.4152 0.3688s-1.7632-0.1956-0.98478-0.39844zm6.5848-14.646c0.27193-0.44 0.99193-0.8 1.6-0.8 0.60806 0 1.3281 0.36 1.6 0.8 0.28153 0.45552-0.40743 0.8-1.6 0.8s-1.8815-0.34448-1.6-0.8zm31.6-30.268c0-1.4847 0.96537-3.3321 1.7412-3.3321 1.1124 0 0.44743 3.4125-0.74123 3.804-0.55 0.18113-1-0.0312-1-0.47191zm-120.78-4.7093c1.4295-2.5426 3.4497-5.6404 4.4892-6.8842 1.0396-1.2438 1.8981-2.6838 1.9078-3.2 0.0098-0.51624 2.3315-4.8854 5.1596-9.7093 3.6848-6.2852 5.2866-8.3936 5.6526-7.4399 0.33462 0.87199-2.4322 6.333-8.0247 15.839-4.6945 7.9795-8.3701 14.673-8.1681 14.875 0.20199 0.20199 4.2813-6.3201 9.0651-14.494l8.6978-14.861 1.0766 2.6074c1.622 3.9283 2.0563 10.41 0.9269 13.833-2.2646 6.8618-10.826 13.036-18.997 13.7l-4.3847 0.35638zm108.38 3.0281c-1.76-0.30185-4.3672-1.1646-5.7937-1.9172-3.382-1.7842-7.3888-8.7021-7.3988-12.775-7e-3 -2.7541 0.27213-3.1576 2.9583-4.28 1.6312-0.68154 4.2188-1.2392 5.7502-1.2392s3.566-0.51211 4.5213-1.138c1.5151-0.99275 1.8669-0.98128 2.7559 0.0899 0.75877 0.91426 1.2899 1.0031 2.0794 0.34786 0.8634-0.71656 1.1038 0.35903 1.2939 5.7901l0.23349 6.6702 4.4 0.41693c4.4146 0.41833 9.1698 2.7376 8.3459 4.0706-0.72023 1.1654-2.3947 0.81906-4.6616-0.96407-2.6169-2.0584-4.2858-1.5428-4.6267 1.4293-0.2449 2.1357-0.43427 2.2338-3.8151 1.9756-3.175-0.24241-3.4439-0.13492-2.502 1 0.58044 0.69938 0.74126 1.2265 0.35738 1.1715-0.38387-0.055-2.138-0.3471-3.898-0.64895zm0.47333-6.4682c3.0066-0.70977 2.8082-2.3827-0.28268-2.3827-3.7152 0-5.9062 2.3418-4.5544 4.8677l0.96376 1.8008 1.0326-1.9295c0.56795-1.0612 1.8462-2.1216 2.8407-2.3563zm3.7307-7.3827c-0.18114-0.55-1.1839-1.1246-2.2284-1.2768-1.658-0.2417-1.7646-0.11478-0.83938 1 1.2529 1.5096 3.5418 1.7162 3.0678 0.27683zm11.419 3.0283c-0.53482-0.64443-0.89056-2.7144-0.79052-4.6s0.13355-4.2858 0.0745-5.3339c-0.17071-3.0278-5.1363-7.0538-10.893-8.8318-10.119-3.1255-14.712-6.6829-16.379-12.687-2.6699-9.6135 2.0238-17.935 13.1-23.226 3.9645-1.8937 5.2504-2.958 5.9303-4.9082 0.56563-1.6226 1.7708-2.8698 3.4592-3.5797 3.0748-1.2929 4.0432-1.0353 5.0918 1.3543 0.62775 1.4306 1.829 1.9563 6.0554 2.6498 5.7623 0.94558 8.1768 2.262 10.438 5.6908 1.8565 2.8156 1.9653 8.4546 0.19731 10.223-2.0579 2.0579-3.1072 0.98378-3.1072-3.1809 0-2.364-0.38581-3.9805-1-4.19-0.67362-0.22972-1 0.56665-1 2.44 0 1.7341-0.45177 2.9544-1.2 3.2416-0.66 0.25327-1.2 1.2007-1.2 2.1054 0 1.9624-3.1772 3.3944-6.755 3.0444-2.3098-0.22591-2.4585-0.44932-2.6888-4.0391-0.22846-3.5604-0.3836-3.8-2.4606-3.8-2.6578 0-5.6956 2.9498-5.6956 5.5306 0 2.8138 4.1435 6.0556 11.817 9.2452 14.632 6.0822 18.692 11.68 16.483 22.724-0.92324 4.6162-1.9 2.5571-1.9-4.0053v-6.5053l-3.4947-3.4947c-3.8364-3.8364-6.1567-4.7379-4.0948-1.591 0.68608 1.0471 1.6154 4.1888 2.0652 6.9817 0.44978 2.7928 1.1952 5.3112 1.6566 5.5963 0.78138 0.48292 0.50913 3.3229-0.72072 7.5183-0.42057 1.4347-0.56819 1.3604-1.4289-0.71891l-0.95991-2.3189-0.57052 3.1189c-0.92149 5.0375-2.4162 6.7189-5.9727 6.7189-1.7319 0-3.5099-0.51361-4.056-1.1717zm6.7194-2.4855c1.1384-1.1384 1.8879-8.3428 0.86788-8.3428-0.21409 0-0.91572 1.26-1.5592 2.8-0.64346 1.54-1.7396 2.8-2.4358 2.8-1.7033 0-2.5292 2.384-1.1323 3.2685 1.6386 1.0375 2.8452 0.88864 4.2594-0.52564zm-1.1428-25.555c0-0.71856-5.1495-3.5832-6.4-3.5603-0.66 0.0121 0.24 0.90889 2 1.9929 3.1435 1.9361 4.4 2.3837 4.4 1.5674zm-108.8 1.2434c0-0.49594 8.5313-15.455 18.958-33.242 16.528-28.194 20.387-34.111 21.514-32.984 0.46182 0.46182-38.64 66.516-39.555 66.821-0.50452 0.16817-0.91731-0.1-0.91731-0.59592zm166.6-37.255c-1.7225-1.2126-2.535-4.3765-1.124-4.3765 1.2298 0 3.469 3.0582 3.1941 4.3623-0.2468 1.1708-0.42552 1.172-2.0701 0.0142zm3.3569-10.846c-0.82442-1.3339 1.0298-2.8636 2.1334-1.76 0.92314 0.92314 0.34538 2.6297-0.89029 2.6297-0.38807 0-0.94745-0.39137-1.2431-0.86971zm-7.2319-4.8516c-1.3244-2.1429 3.8631-3.7568 8.275-2.5744 2.7347 0.73286 2.1502 1.8958-0.95279 1.8958-1.514 0-2.9753 0.36-3.2472 0.8-0.67469 1.0917-3.375 1.0112-4.075-0.12136z" fill="#5ede79"/>
  <path d="m108.83 259.31c17.456-30.181 31.949-54.528 32.469-54.546 1.857-0.0635-1.2386 5.9862-15.853 30.983-11.41 19.516-16.406 27.37-17.416 27.381-1.2418 0.0127-1.1432-0.45747 0.8-3.8173zm2.7945 1.8969c1.2698-2.3752 30.36-51.999 30.71-52.389 0.16023-0.17786 3.2658 2.7231 6.9013 6.4466s8.68 8.1183 11.21 9.7661c4.8557 3.1627 5.4328 4.0198 3.2662 4.8512-0.99844 0.38314-1.1045 0.74113-0.42169 1.4239 0.68276 0.68276 1.4298 0.67617 2.9714-0.0262 1.1326-0.51606 2.4024-0.93829 2.8217-0.93829 1.2508 0 0.86517 1.7456-0.63764 2.8864-1.2648 0.96014-1.1707 1.0652 0.97496 1.0882l2.375 0.0254-4.484 4.6c-2.4662 2.53-4.8718 5.3619-5.3459 6.2931-0.56834 1.1164-1.9424 1.8659-4.0342 2.2004-3.9038 0.62424-5.6858 2.2995-5.6858 5.3452 0 2.6165-1.6577 4.0059-7.0494 5.9082-3.9897 1.4076-18.484 3.4172-27.907 3.8691-6.4348 0.30858-6.5395 0.28363-5.6658-1.3508zm48.468-34.125c-0.15766-0.473-0.62866-0.86-1.0467-0.86s-0.889 0.387-1.0467 0.86 0.31333 0.86 1.0467 0.86c0.73333 0 1.2043-0.387 1.0467-0.86zm-1.8467 29.66c0.27193-0.44 1.0132-0.8 1.6472-0.8 0.63404 0 1.1528 0.36 1.1528 0.8s-0.74125 0.8-1.6472 0.8-1.4247-0.36-1.1528-0.8zm8.988-1.7924c3.6758-1.4311 3.2766-2.5208-1.1574-3.1588-2.1068-0.3032-4.8788-0.75583-6.1599-1.0059-2.2487-0.43886-2.2815-0.40177-0.94789 1.0718 1.9749 2.1822-8e-4 3.1625-2.1147 1.049-2.1667-2.1667-1.3382-4.1637 1.7274-4.1637 3.4091 0 10.469 1.5924 13.164 2.9693 2.0348 1.0395 2.1626 1.3116 1.1101 2.3641-0.65416 0.65416-2.7689 1.3452-4.6995 1.5356l-3.5101 0.34624zm5.2272-6.762c0.77838-0.20283 1.8584-0.18949 2.4 0.0297 0.54163 0.21915-0.0952 0.3851-1.4152 0.3688s-1.7632-0.1956-0.98478-0.39844zm6.5848-14.646c0.27193-0.44 0.99193-0.8 1.6-0.8 0.60806 0 1.3281 0.36 1.6 0.8 0.28153 0.45552-0.40743 0.8-1.6 0.8s-1.8815-0.34448-1.6-0.8zm31.6-30.268c0-1.4847 0.96537-3.3321 1.7412-3.3321 1.1124 0 0.44743 3.4125-0.74123 3.804-0.55 0.18113-1-0.0312-1-0.47191zm-12.4-1.6812c-1.76-0.30185-4.3672-1.1646-5.7937-1.9172-3.382-1.7842-7.3888-8.7021-7.3988-12.775-7e-3 -2.7541 0.27213-3.1576 2.9583-4.28 1.6312-0.68154 4.2188-1.2392 5.7502-1.2392s3.566-0.51211 4.5213-1.138c1.5151-0.99275 1.8669-0.98128 2.7559 0.0899 0.75877 0.91426 1.2899 1.0031 2.0794 0.34786 0.8634-0.71656 1.1038 0.35903 1.2939 5.7901l0.23349 6.6702 4.4 0.41693c4.4146 0.41833 9.1698 2.7376 8.3459 4.0706-0.72023 1.1654-2.3947 0.81906-4.6616-0.96407-2.6169-2.0584-4.2858-1.5428-4.6267 1.4293-0.2449 2.1357-0.43427 2.2338-3.8151 1.9756-3.175-0.24241-3.4439-0.13492-2.502 1 0.58044 0.69938 0.74126 1.2265 0.35738 1.1715-0.38387-0.055-2.138-0.3471-3.898-0.64895zm0.47333-6.4682c3.0066-0.70977 2.8082-2.3827-0.28268-2.3827-3.7152 0-5.9062 2.3418-4.5544 4.8677l0.96376 1.8008 1.0326-1.9295c0.56795-1.0612 1.8462-2.1216 2.8407-2.3563zm3.7307-7.3827c-0.18114-0.55-1.1839-1.1246-2.2284-1.2768-1.658-0.2417-1.7646-0.11478-0.83938 1 1.2529 1.5096 3.5418 1.7162 3.0678 0.27683zm11.419 3.0283c-0.53482-0.64443-0.89056-2.7144-0.79052-4.6s0.13355-4.2858 0.0745-5.3339c-0.17071-3.0278-5.1363-7.0538-10.893-8.8318-10.293-3.179-14.758-6.7102-16.455-13.013-2.4718-9.1795 2.5244-17.813 13.282-22.952 3.8632-1.8454 5.1474-2.9164 5.8241-4.8575 0.56563-1.6226 1.7708-2.8698 3.4592-3.5797 3.0748-1.2929 4.0432-1.0353 5.0918 1.3543 0.62775 1.4306 1.829 1.9563 6.0554 2.6498 5.7623 0.94558 8.1768 2.262 10.438 5.6908 1.8565 2.8156 1.9653 8.4546 0.19731 10.223-2.0579 2.0579-3.1072 0.98378-3.1072-3.1809 0-2.364-0.38581-3.9805-1-4.19-0.67362-0.22972-1 0.56665-1 2.44 0 1.7341-0.45177 2.9544-1.2 3.2416-0.66 0.25327-1.2 1.2007-1.2 2.1054 0 1.9624-3.1772 3.3944-6.755 3.0444-2.3098-0.22591-2.4585-0.44932-2.6888-4.0391-0.22846-3.5604-0.3836-3.8-2.4606-3.8-2.6578 0-5.6956 2.9498-5.6956 5.5306 0 2.8138 4.1435 6.0556 11.817 9.2452 14.632 6.0822 18.692 11.68 16.483 22.724-0.92324 4.6162-1.9 2.5571-1.9-4.0053v-6.5053l-3.4947-3.4947c-3.8364-3.8364-6.1567-4.7379-4.0948-1.591 0.68608 1.0471 1.6154 4.1888 2.0652 6.9817 0.44978 2.7928 1.1952 5.3112 1.6566 5.5963 0.78138 0.48292 0.50913 3.3229-0.72072 7.5183-0.42057 1.4347-0.56819 1.3604-1.4289-0.71891l-0.95991-2.3189-0.57052 3.1189c-0.92149 5.0375-2.4162 6.7189-5.9727 6.7189-1.7319 0-3.5099-0.51361-4.056-1.1717zm6.7194-2.4855c1.1384-1.1384 1.8879-8.3428 0.86788-8.3428-0.21409 0-0.91572 1.26-1.5592 2.8-0.64346 1.54-1.7396 2.8-2.4358 2.8-1.7033 0-2.5292 2.384-1.1323 3.2685 1.6386 1.0375 2.8452 0.88864 4.2594-0.52564zm-1.1428-25.555c0-0.71856-5.1495-3.5832-6.4-3.5603-0.66 0.0121 0.24 0.90889 2 1.9929 3.1435 1.9361 4.4 2.3837 4.4 1.5674zm57.8-36.012c-1.7225-1.2126-2.535-4.3765-1.124-4.3765 1.2298 0 3.469 3.0582 3.1941 4.3623-0.2468 1.1708-0.42552 1.172-2.0701 0.0142zm-6.9458-8.7765c-1.1746-1.54-2.5313-2.8-3.0149-2.8-0.48357 0-3.3028-1.3973-6.265-3.1051-11.29-6.5092-24.476-9.3932-39.174-8.5683-10.728 0.60205-15.059 1.1595-17 2.1879-0.95831 0.50778-1.4 0.44651-1.4-0.19421 0-1.1911 10.383-19.117 11.08-19.13 0.28615-0.0051 4.9538-0.8977 10.372-1.9835 19.864-3.9802 48.718-8.5019 54.948-8.6106 4.0483-0.07066 6.7884-0.49476 7.4571-1.1541 1.2734-1.2557 14.956-1.454 18.091-0.26225 3.6584 1.3909 1.6923 4.8198-2.7637 4.8198-0.94653 0-4.2241 1.2331-7.2834 2.7403-4.212 2.075-5.1332 2.8034-3.7943 3 0.9725 0.14282 1.9242 0.73309 2.1148 1.3117 0.25927 0.78682-0.32993 0.934-2.3373 0.58386-3.8251-0.66719-6.6669 1.0151-6.75 3.9958-0.1122 4.0263-0.22944 4.2208-4.134 6.8589-5.013 3.3869-12.2 9.4582-12.2 10.306 0 0.37005 1.62 2.5707 3.6 4.8903 3.7687 4.4152 4.4593 6.6122 2.3346 7.4276-0.69599 0.26708-1.3733 0.48559-1.505 0.48559s-1.2007-1.26-2.3753-2.8zm-4.0326-6.835c0.72282-1.1695-1.1179-3.165-2.9196-3.165-1.8499 0-1.8948 0.64006-0.17806 2.537 1.5038 1.6617 2.3525 1.8337 3.0977 0.62795zm4.1617-31.648c-0.26583-0.26583-0.95584-0.29426-1.5333-0.06316-0.63819 0.25538-0.44863 0.44495 0.48333 0.48333 0.84333 0.03474 1.3158-0.15434 1.05-0.42018zm23.072-1.2061c0.58016-0.93872-0.96671-2.2776-2.6553-2.2983-2.2346-0.02738-0.80185 2.8556 1.5528 3.1246 0.30403 0.03474 0.80016-0.33709 1.1025-0.82628zm-12.898 37.62c-0.82442-1.3339 1.0298-2.8636 2.1334-1.76 0.92314 0.92314 0.34538 2.6297-0.89029 2.6297-0.38807 0-0.94745-0.39137-1.2431-0.86971zm-7.2319-4.8516c-1.3244-2.1429 3.8631-3.7568 8.275-2.5744 2.7347 0.73286 2.1502 1.8958-0.95279 1.8958-1.514 0-2.9753 0.36-3.2472 0.8-0.67469 1.0917-3.375 1.0112-4.075-0.12136zm-74.725-4.3936c0-0.28325 2.4174-4.6443 5.3721-9.6912 4.8775-8.3313 6.8038-10.685 7.8719-9.6165 0.69128 0.69128-11.029 19.823-12.144 19.823-0.60523 0-1.1004-0.23175-1.1004-0.515z" fill="#62de73"/>
 </g>
 <text transform="scale(.70383 1.4208)" x="381.53278" y="71.6726" fill="#000000" font-family="'DisposableDroid BB'" font-size="92.911px" font-weight="bold" letter-spacing="0px" word-spacing="0px" style="line-height:92.91078186px" xml:space="preserve"><tspan x="381.53278" y="71.6726" font-family="'DisposableDroid BB'" font-weight="bold">digitalincomeideas</tspan></text>
</svg>
